<?xml version="1.0" encoding="UTF-8" standalone="no"?>
<svg width="60px" height="60px" viewBox="0 0 60 60" version="1.1" xmlns="http://www.w3.org/2000/svg" xmlns:xlink="http://www.w3.org/1999/xlink" xmlns:sketch="http://www.bohemiancoding.com/sketch/ns">
    <!-- Generator: Sketch 3.2.2 (9983) - http://www.bohemiancoding.com/sketch -->
    <title>14 - Analitics (Webby)</title>
    <desc>Created with Sketch.</desc>
    <defs></defs>
    <g id="Page-1" stroke="none" stroke-width="1" fill="none" fill-rule="evenodd" sketch:type="MSPage">
        <g id="Icons" sketch:type="MSArtboardGroup" transform="translate(-840.000000, -1317.000000)">
            <g id="14---Analitics-(Webby)" sketch:type="MSLayerGroup" transform="translate(841.000000, 1318.000000)">
                <path d="M0,0 L58,0 L58,58 L0,58 L0,0 Z" id="Fill-1730" fill="#FFFFFF" sketch:type="MSShapeGroup"></path>
                <path d="M0,0 L58,0 L58,58 L0,58 L0,0 Z" id="Stroke-1731" stroke="#0096E6" stroke-width="2" stroke-linecap="round" stroke-linejoin="round" sketch:type="MSShapeGroup"></path>
                <path d="M0,0 L58,0 L58,12 L0,12 L0,0 Z" id="Fill-1732" fill="#D0E8F9" sketch:type="MSShapeGroup"></path>
                <path d="M0,0 L58,0 L58,12 L0,12 L0,0 Z" id="Stroke-1733" stroke="#0096E6" stroke-width="2" stroke-linecap="round" stroke-linejoin="round" sketch:type="MSShapeGroup"></path>
                <path d="M6,23 L21,23 M9,19 L18,19 M6,27 L21,27" id="Stroke-1738" stroke="#0096E6" stroke-width="2" stroke-linecap="round" stroke-linejoin="round" sketch:type="MSShapeGroup"></path>
                <path d="M54,43 L45.121,34.121 C44.578,34.664 43.828,35 43,35 C42.172,35 41.422,34.664 40.879,34.121 L33,42 L28.121,37.121 C27.578,37.664 26.828,38 26,38 C25.172,38 24.422,37.664 23.879,37.121 L15,46 L9.121,40.121 C8.578,40.664 7.828,41 7,41 C6.172,41 5.422,40.664 4.879,40.121 L0,45 L0,58 L58,58 L58,39 L54,43 L54,43 Z" id="Fill-1739" fill="#D0E8F9" sketch:type="MSShapeGroup"></path>
                <path d="M54,43 L45.121,34.121 C44.578,34.664 43.828,35 43,35 C42.172,35 41.422,34.664 40.879,34.121 L33,42 L28.121,37.121 C27.578,37.664 26.828,38 26,38 C25.172,38 24.422,37.664 23.879,37.121 L15,46 L9.121,40.121 C8.578,40.664 7.828,41 7,41 C6.172,41 5.422,40.664 4.879,40.121 L0,45 L0,58 L58,58 L58,39 L54,43 L54,43 Z" id="Stroke-1740" stroke="#0096E6" stroke-width="2" stroke-linecap="round" stroke-linejoin="round" sketch:type="MSShapeGroup"></path>
                <path d="M54,52 C53.448,52 53,51.552 53,51 C53,50.448 53.448,50 54,50 C54.552,50 55,50.448 55,51 C55,51.552 54.552,52 54,52" id="Fill-1816" fill="#0096E6" sketch:type="MSShapeGroup"></path>
                <path d="M57,49 C56.448,49 56,48.552 56,48 C56,47.448 56.448,47 57,47 C57.552,47 58,47.448 58,48 C58,48.552 57.552,49 57,49" id="Fill-1817" fill="#0096E6" sketch:type="MSShapeGroup"></path>
                <path d="M57,55 C56.448,55 56,54.552 56,54 C56,53.448 56.448,53 57,53 C57.552,53 58,53.448 58,54 C58,54.552 57.552,55 57,55" id="Fill-1818" fill="#0096E6" sketch:type="MSShapeGroup"></path>
                <path d="M51,49 C50.448,49 50,48.552 50,48 C50,47.448 50.448,47 51,47 C51.552,47 52,47.448 52,48 C52,48.552 51.552,49 51,49" id="Fill-1819" fill="#0096E6" sketch:type="MSShapeGroup"></path>
                <path d="M51,55 C50.448,55 50,54.552 50,54 C50,53.448 50.448,53 51,53 C51.552,53 52,53.448 52,54 C52,54.552 51.552,55 51,55" id="Fill-1820" fill="#0096E6" sketch:type="MSShapeGroup"></path>
                <path d="M54,58 C53.448,58 53,57.552 53,57 C53,56.448 53.448,56 54,56 C54.552,56 55,56.448 55,57 C55,57.552 54.552,58 54,58" id="Fill-1821" fill="#0096E6" sketch:type="MSShapeGroup"></path>
                <path d="M48,52 C47.448,52 47,51.552 47,51 C47,50.448 47.448,50 48,50 C48.552,50 49,50.448 49,51 C49,51.552 48.552,52 48,52" id="Fill-1822" fill="#0096E6" sketch:type="MSShapeGroup"></path>
                <path d="M45,49 C44.448,49 44,48.552 44,48 C44,47.448 44.448,47 45,47 C45.552,47 46,47.448 46,48 C46,48.552 45.552,49 45,49" id="Fill-1823" fill="#0096E6" sketch:type="MSShapeGroup"></path>
                <path d="M45,55 C44.448,55 44,54.552 44,54 C44,53.448 44.448,53 45,53 C45.552,53 46,53.448 46,54 C46,54.552 45.552,55 45,55" id="Fill-1824" fill="#0096E6" sketch:type="MSShapeGroup"></path>
                <path d="M48,58 C47.448,58 47,57.552 47,57 C47,56.448 47.448,56 48,56 C48.552,56 49,56.448 49,57 C49,57.552 48.552,58 48,58" id="Fill-1825" fill="#0096E6" sketch:type="MSShapeGroup"></path>
                <path d="M42,52 C41.448,52 41,51.552 41,51 C41,50.448 41.448,50 42,50 C42.552,50 43,50.448 43,51 C43,51.552 42.552,52 42,52" id="Fill-1826" fill="#0096E6" sketch:type="MSShapeGroup"></path>
                <path d="M39,49 C38.448,49 38,48.552 38,48 C38,47.448 38.448,47 39,47 C39.552,47 40,47.448 40,48 C40,48.552 39.552,49 39,49" id="Fill-1827" fill="#0096E6" sketch:type="MSShapeGroup"></path>
                <path d="M39,55 C38.448,55 38,54.552 38,54 C38,53.448 38.448,53 39,53 C39.552,53 40,53.448 40,54 C40,54.552 39.552,55 39,55" id="Fill-1828" fill="#0096E6" sketch:type="MSShapeGroup"></path>
                <path d="M42,58 C41.448,58 41,57.552 41,57 C41,56.448 41.448,56 42,56 C42.552,56 43,56.448 43,57 C43,57.552 42.552,58 42,58" id="Fill-1829" fill="#0096E6" sketch:type="MSShapeGroup"></path>
                <path d="M36,52 C35.448,52 35,51.552 35,51 C35,50.448 35.448,50 36,50 C36.552,50 37,50.448 37,51 C37,51.552 36.552,52 36,52" id="Fill-1830" fill="#0096E6" sketch:type="MSShapeGroup"></path>
                <path d="M33,49 C32.448,49 32,48.552 32,48 C32,47.448 32.448,47 33,47 C33.552,47 34,47.448 34,48 C34,48.552 33.552,49 33,49" id="Fill-1831" fill="#0096E6" sketch:type="MSShapeGroup"></path>
                <path d="M33,55 C32.448,55 32,54.552 32,54 C32,53.448 32.448,53 33,53 C33.552,53 34,53.448 34,54 C34,54.552 33.552,55 33,55" id="Fill-1832" fill="#0096E6" sketch:type="MSShapeGroup"></path>
                <path d="M36,58 C35.448,58 35,57.552 35,57 C35,56.448 35.448,56 36,56 C36.552,56 37,56.448 37,57 C37,57.552 36.552,58 36,58" id="Fill-1833" fill="#0096E6" sketch:type="MSShapeGroup"></path>
                <path d="M30,52 C29.448,52 29,51.552 29,51 C29,50.448 29.448,50 30,50 C30.552,50 31,50.448 31,51 C31,51.552 30.552,52 30,52" id="Fill-1834" fill="#0096E6" sketch:type="MSShapeGroup"></path>
                <path d="M27,49 C26.448,49 26,48.552 26,48 C26,47.448 26.448,47 27,47 C27.552,47 28,47.448 28,48 C28,48.552 27.552,49 27,49" id="Fill-1835" fill="#0096E6" sketch:type="MSShapeGroup"></path>
                <path d="M27,55 C26.448,55 26,54.552 26,54 C26,53.448 26.448,53 27,53 C27.552,53 28,53.448 28,54 C28,54.552 27.552,55 27,55" id="Fill-1836" fill="#0096E6" sketch:type="MSShapeGroup"></path>
                <path d="M30,58 C29.448,58 29,57.552 29,57 C29,56.448 29.448,56 30,56 C30.552,56 31,56.448 31,57 C31,57.552 30.552,58 30,58" id="Fill-1837" fill="#0096E6" sketch:type="MSShapeGroup"></path>
                <path d="M24,52 C23.448,52 23,51.552 23,51 C23,50.448 23.448,50 24,50 C24.552,50 25,50.448 25,51 C25,51.552 24.552,52 24,52" id="Fill-1838" fill="#0096E6" sketch:type="MSShapeGroup"></path>
                <path d="M21,49 C20.448,49 20,48.552 20,48 C20,47.448 20.448,47 21,47 C21.552,47 22,47.448 22,48 C22,48.552 21.552,49 21,49" id="Fill-1839" fill="#0096E6" sketch:type="MSShapeGroup"></path>
                <path d="M21,55 C20.448,55 20,54.552 20,54 C20,53.448 20.448,53 21,53 C21.552,53 22,53.448 22,54 C22,54.552 21.552,55 21,55" id="Fill-1840" fill="#0096E6" sketch:type="MSShapeGroup"></path>
                <path d="M24,58 C23.448,58 23,57.552 23,57 C23,56.448 23.448,56 24,56 C24.552,56 25,56.448 25,57 C25,57.552 24.552,58 24,58" id="Fill-1841" fill="#0096E6" sketch:type="MSShapeGroup"></path>
                <path d="M18,52 C17.448,52 17,51.552 17,51 C17,50.448 17.448,50 18,50 C18.552,50 19,50.448 19,51 C19,51.552 18.552,52 18,52" id="Fill-1842" fill="#0096E6" sketch:type="MSShapeGroup"></path>
                <path d="M15,49 C14.448,49 14,48.552 14,48 C14,47.448 14.448,47 15,47 C15.552,47 16,47.448 16,48 C16,48.552 15.552,49 15,49" id="Fill-1843" fill="#0096E6" sketch:type="MSShapeGroup"></path>
                <path d="M15,55 C14.448,55 14,54.552 14,54 C14,53.448 14.448,53 15,53 C15.552,53 16,53.448 16,54 C16,54.552 15.552,55 15,55" id="Fill-1844" fill="#0096E6" sketch:type="MSShapeGroup"></path>
                <path d="M18,58 C17.448,58 17,57.552 17,57 C17,56.448 17.448,56 18,56 C18.552,56 19,56.448 19,57 C19,57.552 18.552,58 18,58" id="Fill-1845" fill="#0096E6" sketch:type="MSShapeGroup"></path>
                <path d="M12,52 C11.448,52 11,51.552 11,51 C11,50.448 11.448,50 12,50 C12.552,50 13,50.448 13,51 C13,51.552 12.552,52 12,52" id="Fill-1846" fill="#0096E6" sketch:type="MSShapeGroup"></path>
                <path d="M9,49 C8.448,49 8,48.552 8,48 C8,47.448 8.448,47 9,47 C9.552,47 10,47.448 10,48 C10,48.552 9.552,49 9,49" id="Fill-1847" fill="#0096E6" sketch:type="MSShapeGroup"></path>
                <path d="M9,55 C8.448,55 8,54.552 8,54 C8,53.448 8.448,53 9,53 C9.552,53 10,53.448 10,54 C10,54.552 9.552,55 9,55" id="Fill-1848" fill="#0096E6" sketch:type="MSShapeGroup"></path>
                <path d="M12,58 C11.448,58 11,57.552 11,57 C11,56.448 11.448,56 12,56 C12.552,56 13,56.448 13,57 C13,57.552 12.552,58 12,58" id="Fill-1849" fill="#0096E6" sketch:type="MSShapeGroup"></path>
                <path d="M6,52 C5.448,52 5,51.552 5,51 C5,50.448 5.448,50 6,50 C6.552,50 7,50.448 7,51 C7,51.552 6.552,52 6,52" id="Fill-1850" fill="#0096E6" sketch:type="MSShapeGroup"></path>
                <path d="M3,49 C2.448,49 2,48.552 2,48 C2,47.448 2.448,47 3,47 C3.552,47 4,47.448 4,48 C4,48.552 3.552,49 3,49" id="Fill-1851" fill="#0096E6" sketch:type="MSShapeGroup"></path>
                <path d="M3,55 C2.448,55 2,54.552 2,54 C2,53.448 2.448,53 3,53 C3.552,53 4,53.448 4,54 C4,54.552 3.552,55 3,55" id="Fill-1852" fill="#0096E6" sketch:type="MSShapeGroup"></path>
                <path d="M6,58 C5.448,58 5,57.552 5,57 C5,56.448 5.448,56 6,56 C6.552,56 7,56.448 7,57 C7,57.552 6.552,58 6,58" id="Fill-1853" fill="#0096E6" sketch:type="MSShapeGroup"></path>
                <path d="M57,43 C56.448,43 56,42.552 56,42 C56,41.448 56.448,41 57,41 C57.552,41 58,41.448 58,42 C58,42.552 57.552,43 57,43" id="Fill-1854" fill="#0096E6" sketch:type="MSShapeGroup"></path>
                <path d="M51,43 C50.448,43 50,42.552 50,42 C50,41.448 50.448,41 51,41 C51.552,41 52,41.448 52,42 C52,42.552 51.552,43 51,43" id="Fill-1855" fill="#0096E6" sketch:type="MSShapeGroup"></path>
                <path d="M54,46 C53.448,46 53,45.552 53,45 C53,44.448 53.448,44 54,44 C54.552,44 55,44.448 55,45 C55,45.552 54.552,46 54,46" id="Fill-1856" fill="#0096E6" sketch:type="MSShapeGroup"></path>
                <path d="M48,40 C47.448,40 47,39.552 47,39 C47,38.448 47.448,38 48,38 C48.552,38 49,38.448 49,39 C49,39.552 48.552,40 48,40" id="Fill-1857" fill="#0096E6" sketch:type="MSShapeGroup"></path>
                <path d="M45,37 C44.448,37 44,36.552 44,36 C44,35.448 44.448,35 45,35 C45.552,35 46,35.448 46,36 C46,36.552 45.552,37 45,37" id="Fill-1858" fill="#0096E6" sketch:type="MSShapeGroup"></path>
                <path d="M45,43 C44.448,43 44,42.552 44,42 C44,41.448 44.448,41 45,41 C45.552,41 46,41.448 46,42 C46,42.552 45.552,43 45,43" id="Fill-1859" fill="#0096E6" sketch:type="MSShapeGroup"></path>
                <path d="M48,46 C47.448,46 47,45.552 47,45 C47,44.448 47.448,44 48,44 C48.552,44 49,44.448 49,45 C49,45.552 48.552,46 48,46" id="Fill-1860" fill="#0096E6" sketch:type="MSShapeGroup"></path>
                <path d="M42,40 C41.448,40 41,39.552 41,39 C41,38.448 41.448,38 42,38 C42.552,38 43,38.448 43,39 C43,39.552 42.552,40 42,40" id="Fill-1861" fill="#0096E6" sketch:type="MSShapeGroup"></path>
                <path d="M39,43 C38.448,43 38,42.552 38,42 C38,41.448 38.448,41 39,41 C39.552,41 40,41.448 40,42 C40,42.552 39.552,43 39,43" id="Fill-1862" fill="#0096E6" sketch:type="MSShapeGroup"></path>
                <path d="M42,46 C41.448,46 41,45.552 41,45 C41,44.448 41.448,44 42,44 C42.552,44 43,44.448 43,45 C43,45.552 42.552,46 42,46" id="Fill-1863" fill="#0096E6" sketch:type="MSShapeGroup"></path>
                <path d="M36,46 C35.448,46 35,45.552 35,45 C35,44.448 35.448,44 36,44 C36.552,44 37,44.448 37,45 C37,45.552 36.552,46 36,46" id="Fill-1864" fill="#0096E6" sketch:type="MSShapeGroup"></path>
                <path d="M27,43 C26.448,43 26,42.552 26,42 C26,41.448 26.448,41 27,41 C27.552,41 28,41.448 28,42 C28,42.552 27.552,43 27,43" id="Fill-1865" fill="#0096E6" sketch:type="MSShapeGroup"></path>
                <path d="M30,46 C29.448,46 29,45.552 29,45 C29,44.448 29.448,44 30,44 C30.552,44 31,44.448 31,45 C31,45.552 30.552,46 30,46" id="Fill-1866" fill="#0096E6" sketch:type="MSShapeGroup"></path>
                <path d="M24,40 C23.448,40 23,39.552 23,39 C23,38.448 23.448,38 24,38 C24.552,38 25,38.448 25,39 C25,39.552 24.552,40 24,40" id="Fill-1867" fill="#0096E6" sketch:type="MSShapeGroup"></path>
                <path d="M21,43 C20.448,43 20,42.552 20,42 C20,41.448 20.448,41 21,41 C21.552,41 22,41.448 22,42 C22,42.552 21.552,43 21,43" id="Fill-1868" fill="#0096E6" sketch:type="MSShapeGroup"></path>
                <path d="M24,46 C23.448,46 23,45.552 23,45 C23,44.448 23.448,44 24,44 C24.552,44 25,44.448 25,45 C25,45.552 24.552,46 24,46" id="Fill-1869" fill="#0096E6" sketch:type="MSShapeGroup"></path>
                <path d="M18,46 C17.448,46 17,45.552 17,45 C17,44.448 17.448,44 18,44 C18.552,44 19,44.448 19,45 C19,45.552 18.552,46 18,46" id="Fill-1870" fill="#0096E6" sketch:type="MSShapeGroup"></path>
                <path d="M9,43 C8.448,43 8,42.552 8,42 C8,41.448 8.448,41 9,41 C9.552,41 10,41.448 10,42 C10,42.552 9.552,43 9,43" id="Fill-1871" fill="#0096E6" sketch:type="MSShapeGroup"></path>
                <path d="M12,46 C11.448,46 11,45.552 11,45 C11,44.448 11.448,44 12,44 C12.552,44 13,44.448 13,45 C13,45.552 12.552,46 12,46" id="Fill-1872" fill="#0096E6" sketch:type="MSShapeGroup"></path>
                <path d="M6,46 C5.448,46 5,45.552 5,45 C5,44.448 5.448,44 6,44 C6.552,44 7,44.448 7,45 C7,45.552 6.552,46 6,46" id="Fill-1873" fill="#0096E6" sketch:type="MSShapeGroup"></path>
                <path d="M9,6 C9,7.657 7.657,9 6,9 C4.343,9 3,7.657 3,6 C3,4.343 4.343,3 6,3 C7.657,3 9,4.343 9,6 L9,6 Z" id="Fill-1910" fill="#FFFFFF" sketch:type="MSShapeGroup"></path>
                <path d="M9,6 C9,7.657 7.657,9 6,9 C4.343,9 3,7.657 3,6 C3,4.343 4.343,3 6,3 C7.657,3 9,4.343 9,6 L9,6 Z" id="Stroke-1911" stroke="#0096E6" stroke-width="2" stroke-linecap="round" stroke-linejoin="round" sketch:type="MSShapeGroup"></path>
                <path d="M18,6 C18,7.657 16.657,9 15,9 C13.343,9 12,7.657 12,6 C12,4.343 13.343,3 15,3 C16.657,3 18,4.343 18,6 L18,6 Z" id="Fill-1912" fill="#FFFFFF" sketch:type="MSShapeGroup"></path>
                <path d="M18,6 C18,7.657 16.657,9 15,9 C13.343,9 12,7.657 12,6 C12,4.343 13.343,3 15,3 C16.657,3 18,4.343 18,6 L18,6 Z" id="Stroke-1913" stroke="#0096E6" stroke-width="2" stroke-linecap="round" stroke-linejoin="round" sketch:type="MSShapeGroup"></path>
                <path d="M27,6 C27,7.657 25.657,9 24,9 C22.343,9 21,7.657 21,6 C21,4.343 22.343,3 24,3 C25.657,3 27,4.343 27,6 L27,6 Z" id="Fill-1914" fill="#FFFFFF" sketch:type="MSShapeGroup"></path>
                <path d="M27,6 C27,7.657 25.657,9 24,9 C22.343,9 21,7.657 21,6 C21,4.343 22.343,3 24,3 C25.657,3 27,4.343 27,6 L27,6 Z" id="Stroke-1915" stroke="#0096E6" stroke-width="2" stroke-linecap="round" stroke-linejoin="round" sketch:type="MSShapeGroup"></path>
                <path d="M10,38 C10,39.657 8.657,41 7,41 C5.343,41 4,39.657 4,38 C4,36.343 5.343,35 7,35 C8.657,35 10,36.343 10,38 L10,38 Z" id="Fill-1916" fill="#FFFFFF" sketch:type="MSShapeGroup"></path>
                <path d="M10,38 C10,39.657 8.657,41 7,41 C5.343,41 4,39.657 4,38 C4,36.343 5.343,35 7,35 C8.657,35 10,36.343 10,38 L10,38 Z" id="Stroke-1917" stroke="#0096E6" stroke-width="2" stroke-linecap="round" stroke-linejoin="round" sketch:type="MSShapeGroup"></path>
                <path d="M29,35 C29,36.657 27.657,38 26,38 C24.343,38 23,36.657 23,35 C23,33.343 24.343,32 26,32 C27.657,32 29,33.343 29,35 L29,35 Z" id="Fill-1918" fill="#FFFFFF" sketch:type="MSShapeGroup"></path>
                <path d="M29,35 C29,36.657 27.657,38 26,38 C24.343,38 23,36.657 23,35 C23,33.343 24.343,32 26,32 C27.657,32 29,33.343 29,35 L29,35 Z" id="Stroke-1919" stroke="#0096E6" stroke-width="2" stroke-linecap="round" stroke-linejoin="round" sketch:type="MSShapeGroup"></path>
                <path d="M46,32 C46,33.657 44.657,35 43,35 C41.343,35 40,33.657 40,32 C40,30.343 41.343,29 43,29 C44.657,29 46,30.343 46,32 L46,32 Z" id="Fill-1920" fill="#FFFFFF" sketch:type="MSShapeGroup"></path>
                <path d="M46,32 C46,33.657 44.657,35 43,35 C41.343,35 40,33.657 40,32 C40,30.343 41.343,29 43,29 C44.657,29 46,30.343 46,32 L46,32 Z" id="Stroke-1921" stroke="#0096E6" stroke-width="2" stroke-linecap="round" stroke-linejoin="round" sketch:type="MSShapeGroup"></path>
            </g>
        </g>
    </g>
</svg>