<?xml version="1.0" encoding="UTF-8" standalone="no"?>
<svg width="56px" height="56px" viewBox="0 0 56 56" version="1.1" xmlns="http://www.w3.org/2000/svg" xmlns:xlink="http://www.w3.org/1999/xlink" xmlns:sketch="http://www.bohemiancoding.com/sketch/ns">
    <!-- Generator: Sketch 3.2.2 (9983) - http://www.bohemiancoding.com/sketch -->
    <title>95 - Bath (Webby)</title>
    <desc>Created with Sketch.</desc>
    <defs></defs>
    <g id="Page-1" stroke="none" stroke-width="1" fill="none" fill-rule="evenodd" sketch:type="MSPage">
        <g id="Icons" sketch:type="MSArtboardGroup" transform="translate(-722.000000, -361.000000)">
            <g id="95---Bath-(Webby)" sketch:type="MSLayerGroup" transform="translate(723.000000, 362.000000)">
                <path d="M54,31 C54,32.657 52.657,34 51,34 L3,34 C1.343,34 0,32.657 0,31 C0,29.343 1.343,28 3,28 L51,28 C52.657,28 54,29.343 54,31 L54,31 Z" id="Fill-11" fill="#FFFFFF" sketch:type="MSShapeGroup"></path>
                <path d="M54,31 C54,32.657 52.657,34 51,34 L3,34 C1.343,34 0,32.657 0,31 C0,29.343 1.343,28 3,28 L51,28 C52.657,28 54,29.343 54,31 L54,31 Z" id="Stroke-12" stroke="#0096E6" stroke-width="2" stroke-linecap="round" sketch:type="MSShapeGroup"></path>
                <path d="M3,34 L3,36.25 C3,42.902 7.724,48.449 14,49.724 L14,51.5 C14,52.881 15.119,54 16.5,54 C17.881,54 19,52.881 19,51.5 L19,51 L36,51 L36,51.5 C36,52.881 37.119,54 38.5,54 C39.881,54 41,52.881 41,51.5 L41,49.724 C47.275,48.449 52,42.902 52,36.25 L52,34 L3,34 L3,34 Z" id="Fill-13" fill="#FFFFFF" sketch:type="MSShapeGroup"></path>
                <path d="M3,34 L3,36.25 C3,42.902 7.724,48.449 14,49.724 L14,51.5 C14,52.881 15.119,54 16.5,54 C17.881,54 19,52.881 19,51.5 L19,51 L36,51 L36,51.5 C36,52.881 37.119,54 38.5,54 C39.881,54 41,52.881 41,51.5 L41,49.724 C47.275,48.449 52,42.902 52,36.25 L52,34 L3,34 L3,34 Z" id="Stroke-14" stroke="#0096E6" stroke-width="2" stroke-linecap="round" sketch:type="MSShapeGroup"></path>
                <path d="M10.359,43.229 C9.48,42.555 8.793,41.621 8.556,40.528 M26.187,46.347 C22.14,46.519 17.941,46.579 14.025,45.393" id="Stroke-15" stroke="#0096E6" stroke-width="2" stroke-linecap="round" sketch:type="MSShapeGroup"></path>
                <path d="M33.667,26.951 C33.667,20.795 29.052,15.727 23.093,14.995 C22.446,11.306 19.234,8.5 15.36,8.5 C11.019,8.5 7.5,12.019 7.5,16.36 C7.5,16.958 7.573,17.537 7.699,18.096 C2.334,20.333 3,24.502 3,27" id="Fill-16" fill="#D0E8F9" sketch:type="MSShapeGroup"></path>
                <path d="M33.667,26.951 C33.667,20.795 29.052,15.727 23.093,14.995 C22.446,11.306 19.234,8.5 15.36,8.5 C11.019,8.5 7.5,12.019 7.5,16.36 C7.5,16.958 7.573,17.537 7.699,18.096 C2.334,20.333 3,24.502 3,27" id="Stroke-17" stroke="#0096E6" stroke-width="2" stroke-linecap="round" sketch:type="MSShapeGroup"></path>
                <path d="M31.854,8.083 C31.854,9.648 30.586,10.917 29.021,10.917 C27.456,10.917 26.187,9.648 26.187,8.083 C26.187,6.519 27.456,5.25 29.021,5.25 C30.586,5.25 31.854,6.519 31.854,8.083 L31.854,8.083 Z" id="Fill-18" fill="#D0E8F9" sketch:type="MSShapeGroup"></path>
                <path d="M31.854,8.083 C31.854,9.648 30.586,10.917 29.021,10.917 C27.456,10.917 26.187,9.648 26.187,8.083 C26.187,6.519 27.456,5.25 29.021,5.25 C30.586,5.25 31.854,6.519 31.854,8.083 L31.854,8.083 Z" id="Stroke-19" stroke="#0096E6" stroke-width="2" stroke-linecap="round" sketch:type="MSShapeGroup"></path>
                <path d="M7.917,4.333 C7.917,6.497 6.163,8.25 4,8.25 C1.837,8.25 0.084,6.497 0.084,4.333 C0.084,2.17 1.837,0.417 4,0.417 C6.163,0.417 7.917,2.17 7.917,4.333 L7.917,4.333 Z" id="Fill-20" fill="#D0E8F9" sketch:type="MSShapeGroup"></path>
                <path d="M7.917,4.333 C7.917,6.497 6.163,8.25 4,8.25 C1.837,8.25 0.084,6.497 0.084,4.333 C0.084,2.17 1.837,0.417 4,0.417 C6.163,0.417 7.917,2.17 7.917,4.333 L7.917,4.333 Z" id="Stroke-21" stroke="#0096E6" stroke-width="2" stroke-linecap="round" sketch:type="MSShapeGroup"></path>
                <path d="M38.833,19 C40.768,19 40.768,16 38.833,16 C36.898,16 36.898,19 38.833,19" id="Fill-22" fill="#0096E6" sketch:type="MSShapeGroup"></path>
                <path d="M21.333,23.417 C23.268,23.417 23.268,20.417 21.333,20.417 C19.399,20.417 19.399,23.417 21.333,23.417" id="Fill-23" fill="#0096E6" sketch:type="MSShapeGroup"></path>
                <path d="M16.667,5.333 C18.601,5.333 18.601,2.333 16.667,2.333 C14.732,2.333 14.732,5.333 16.667,5.333" id="Fill-24" fill="#0096E6" sketch:type="MSShapeGroup"></path>
            </g>
        </g>
    </g>
</svg>