<?xml version="1.0" encoding="UTF-8" standalone="no"?>
<svg width="52px" height="60px" viewBox="0 0 52 60" version="1.1" xmlns="http://www.w3.org/2000/svg" xmlns:xlink="http://www.w3.org/1999/xlink" xmlns:sketch="http://www.bohemiancoding.com/sketch/ns">
    <!-- Generator: Sketch 3.2.2 (9983) - http://www.bohemiancoding.com/sketch -->
    <title>85 - Color Bucket (Webby)</title>
    <desc>Created with Sketch.</desc>
    <defs></defs>
    <g id="Page-1" stroke="none" stroke-width="1" fill="none" fill-rule="evenodd" sketch:type="MSPage">
        <g id="Icons" sketch:type="MSArtboardGroup" transform="translate(-724.000000, -477.000000)">
            <g id="85---Color-Bucket-(Webby)" sketch:type="MSLayerGroup" transform="translate(725.000000, 478.000000)">
                <path d="M25,12 L25,17.869 C25,19.32 24.028,20.657 22.604,20.94 C20.693,21.319 19,19.848 19,18 L19,27 C19,28.848 17.307,30.319 15.396,29.94 C13.972,29.657 13,28.32 13,26.869 L13,23.5 C13,25.096 11.484,26.355 9.821,25.909 C8.721,25.614 8,24.551 8,23.412 L8,10.964 C8,10.775 8.022,10.591 8.056,10.41 C7.752,10.343 7.456,10.274 7.167,10.203 C7.141,10.197 7.116,10.191 7.091,10.184 C6.829,10.12 6.573,10.054 6.323,9.987 C6.281,9.976 6.241,9.964 6.199,9.952 C5.969,9.889 5.743,9.825 5.523,9.76 C5.473,9.745 5.424,9.729 5.373,9.714 C5.169,9.652 4.97,9.589 4.776,9.526 C4.716,9.506 4.659,9.486 4.6,9.466 C4.421,9.405 4.245,9.344 4.075,9.282 C4.012,9.259 3.95,9.235 3.887,9.211 C3.729,9.152 3.575,9.091 3.425,9.03 C3.36,9.004 3.297,8.977 3.234,8.95 C3.093,8.891 2.957,8.831 2.825,8.77 C2.761,8.74 2.699,8.711 2.638,8.682 C2.514,8.623 2.394,8.562 2.278,8.502 C2.218,8.47 2.157,8.439 2.099,8.407 C1.991,8.348 1.888,8.288 1.788,8.228 C1.73,8.193 1.673,8.159 1.618,8.125 C1.525,8.066 1.438,8.006 1.352,7.946 C1.3,7.91 1.247,7.873 1.198,7.836 C1.118,7.777 1.045,7.717 0.973,7.657 C0.928,7.619 0.881,7.581 0.839,7.543 C0.772,7.483 0.713,7.422 0.654,7.362 C0.616,7.322 0.576,7.283 0.541,7.244 C0.488,7.183 0.442,7.121 0.397,7.06 C0.367,7.02 0.334,6.98 0.307,6.939 C0.266,6.876 0.233,6.812 0.2,6.748 C0.18,6.709 0.155,6.67 0.138,6.63 C0.107,6.56 0.088,6.489 0.067,6.418 C0.057,6.385 0.043,6.351 0.035,6.317 C0.012,6.212 0,6.106 0,6 L0,52 C0,55.314 11.193,58 25,58 C38.807,58 50,55.314 50,52 L50,6 C50,9.314 38.807,12 25,12 L25,12 Z" id="Fill-179" fill="#FFFFFF" sketch:type="MSShapeGroup"></path>
                <path d="M25,12 L25,17.869 C25,19.32 24.028,20.657 22.604,20.94 C20.693,21.319 19,19.848 19,18 L19,27 C19,28.848 17.307,30.319 15.396,29.94 C13.972,29.657 13,28.32 13,26.869 L13,23.5 C13,25.096 11.484,26.355 9.821,25.909 C8.721,25.614 8,24.551 8,23.412 L8,10.964 C8,10.775 8.022,10.591 8.056,10.41 C7.752,10.343 7.456,10.274 7.167,10.203 C7.141,10.197 7.116,10.191 7.091,10.184 C6.829,10.12 6.573,10.054 6.323,9.987 C6.281,9.976 6.241,9.964 6.199,9.952 C5.969,9.889 5.743,9.825 5.523,9.76 C5.473,9.745 5.424,9.729 5.373,9.714 C5.169,9.652 4.97,9.589 4.776,9.526 C4.716,9.506 4.659,9.486 4.6,9.466 C4.421,9.405 4.245,9.344 4.075,9.282 C4.012,9.259 3.95,9.235 3.887,9.211 C3.729,9.152 3.575,9.091 3.425,9.03 C3.36,9.004 3.297,8.977 3.234,8.95 C3.093,8.891 2.957,8.831 2.825,8.77 C2.761,8.74 2.699,8.711 2.638,8.682 C2.514,8.623 2.394,8.562 2.278,8.502 C2.218,8.47 2.157,8.439 2.099,8.407 C1.991,8.348 1.888,8.288 1.788,8.228 C1.73,8.193 1.673,8.159 1.618,8.125 C1.525,8.066 1.438,8.006 1.352,7.946 C1.3,7.91 1.247,7.873 1.198,7.836 C1.118,7.777 1.045,7.717 0.973,7.657 C0.928,7.619 0.881,7.581 0.839,7.543 C0.772,7.483 0.713,7.422 0.654,7.362 C0.616,7.322 0.576,7.283 0.541,7.244 C0.488,7.183 0.442,7.121 0.397,7.06 C0.367,7.02 0.334,6.98 0.307,6.939 C0.266,6.876 0.233,6.812 0.2,6.748 C0.18,6.709 0.155,6.67 0.138,6.63 C0.107,6.56 0.088,6.489 0.067,6.418 C0.057,6.385 0.043,6.351 0.035,6.317 C0.012,6.212 0,6.106 0,6 L0,52 C0,55.314 11.193,58 25,58 C38.807,58 50,55.314 50,52 L50,6 C50,9.314 38.807,12 25,12 L25,12 Z" id="Stroke-180" stroke="#0096E6" stroke-width="2" stroke-linecap="round" stroke-linejoin="round" sketch:type="MSShapeGroup"></path>
                <path d="M13.964,40.5 L13.964,40.5 C12.584,39.119 12.584,36.881 13.964,35.5 L16.465,33 L18.964,35.5 C20.345,36.881 20.345,39.119 18.964,40.5 C17.584,41.881 15.345,41.881 13.964,40.5 L13.964,40.5 Z" id="Fill-221" fill="#D0E8F9" sketch:type="MSShapeGroup"></path>
                <path d="M13.964,40.5 L13.964,40.5 C12.584,39.119 12.584,36.881 13.964,35.5 L16.465,33 L18.964,35.5 C20.345,36.881 20.345,39.119 18.964,40.5 C17.584,41.881 15.345,41.881 13.964,40.5 L13.964,40.5 Z" id="Stroke-222" stroke="#0096E6" stroke-width="2" stroke-linecap="round" stroke-linejoin="round" sketch:type="MSShapeGroup"></path>
                <path d="M50,14 L50,20.053 C50,35.488 39.214,48 25.908,48 L24.092,48 C10.786,48 0,35.488 0,20.053 L0,14" id="Stroke-223" stroke="#0096E6" stroke-width="2" stroke-linecap="round" stroke-linejoin="round" sketch:type="MSShapeGroup"></path>
                <path d="M25,0 C11.193,0 0,2.686 0,6 C0,7.744 3.104,9.314 8.056,10.41 C8.022,10.591 8,10.775 8,10.964 L8,23.412 C8,24.551 8.721,25.614 9.821,25.909 C11.484,26.355 13,25.096 13,23.5 L13,26.869 C13,28.32 13.972,29.657 15.396,29.94 C17.307,30.319 19,28.848 19,27 L19,18 C19,19.848 20.693,21.319 22.604,20.94 C24.028,20.657 25,19.32 25,17.869 L25,12 C38.807,12 50,9.314 50,6 C50,2.686 38.807,0 25,0 L25,0 Z" id="Fill-224" fill="#D0E8F9" sketch:type="MSShapeGroup"></path>
                <path d="M25,0 C11.193,0 0,2.686 0,6 C0,7.744 3.104,9.314 8.056,10.41 C8.022,10.591 8,10.775 8,10.964 L8,23.412 C8,24.551 8.721,25.614 9.821,25.909 C11.484,26.355 13,25.096 13,23.5 L13,26.869 C13,28.32 13.972,29.657 15.396,29.94 C17.307,30.319 19,28.848 19,27 L19,18 C19,19.848 20.693,21.319 22.604,20.94 C24.028,20.657 25,19.32 25,17.869 L25,12 C38.807,12 50,9.314 50,6 C50,2.686 38.807,0 25,0 L25,0 Z" id="Stroke-225" stroke="#0096E6" stroke-width="2" stroke-linecap="round" stroke-linejoin="round" sketch:type="MSShapeGroup"></path>
                <path d="M8,10.964 C8,10.775 8.022,10.591 8.056,10.41 C3.104,9.314 0,7.744 0,6 L0,11 C0,12.738 3.081,14.302 8,15.398 L8,10.964 L8,10.964 Z M25,12 L25,17 C38.807,17 50,14.314 50,11 L50,6 C50,9.314 38.807,12 25,12 L25,12 Z" id="Stroke-226" stroke="#0096E6" stroke-width="2" stroke-linecap="round" stroke-linejoin="round" sketch:type="MSShapeGroup"></path>
                <path d="M14,3 C14,3.552 13.552,4 13,4 C12.448,4 12,3.552 12,3 C12,2.448 12.448,2 13,2 C13.552,2 14,2.448 14,3" id="Fill-227" fill="#0096E6" sketch:type="MSShapeGroup"></path>
                <path d="M5,6 C5,6.552 4.552,7 4,7 C3.448,7 3,6.552 3,6 C3,5.448 3.448,5 4,5 C4.552,5 5,5.448 5,6" id="Fill-228" fill="#0096E6" sketch:type="MSShapeGroup"></path>
                <path d="M14,9 C14,9.552 13.552,10 13,10 C12.448,10 12,9.552 12,9 C12,8.448 12.448,8 13,8 C13.552,8 14,8.448 14,9" id="Fill-229" fill="#0096E6" sketch:type="MSShapeGroup"></path>
                <path d="M26,9 C26,9.552 25.552,10 25,10 C24.448,10 24,9.552 24,9 C24,8.448 24.448,8 25,8 C25.552,8 26,8.448 26,9" id="Fill-230" fill="#0096E6" sketch:type="MSShapeGroup"></path>
                <path d="M11,6 C11,6.552 10.552,7 10,7 C9.448,7 9,6.552 9,6 C9,5.448 9.448,5 10,5 C10.552,5 11,5.448 11,6" id="Fill-231" fill="#0096E6" sketch:type="MSShapeGroup"></path>
                <path d="M20,3 C20,3.552 19.552,4 19,4 C18.448,4 18,3.552 18,3 C18,2.448 18.448,2 19,2 C19.552,2 20,2.448 20,3" id="Fill-232" fill="#0096E6" sketch:type="MSShapeGroup"></path>
                <path d="M26,3 C26,3.552 25.552,4 25,4 C24.448,4 24,3.552 24,3 C24,2.448 24.448,2 25,2 C25.552,2 26,2.448 26,3" id="Fill-233" fill="#0096E6" sketch:type="MSShapeGroup"></path>
                <path d="M17,6 C17,6.552 16.552,7 16,7 C15.448,7 15,6.552 15,6 C15,5.448 15.448,5 16,5 C16.552,5 17,5.448 17,6" id="Fill-234" fill="#0096E6" sketch:type="MSShapeGroup"></path>
                <path d="M20,9 C20,9.552 19.552,10 19,10 C18.448,10 18,9.552 18,9 C18,8.448 18.448,8 19,8 C19.552,8 20,8.448 20,9" id="Fill-235" fill="#0096E6" sketch:type="MSShapeGroup"></path>
                <path d="M23,6 C23,6.552 22.552,7 22,7 C21.448,7 21,6.552 21,6 C21,5.448 21.448,5 22,5 C22.552,5 23,5.448 23,6" id="Fill-236" fill="#0096E6" sketch:type="MSShapeGroup"></path>
                <path d="M32,3 C32,3.552 31.552,4 31,4 C30.448,4 30,3.552 30,3 C30,2.448 30.448,2 31,2 C31.552,2 32,2.448 32,3" id="Fill-237" fill="#0096E6" sketch:type="MSShapeGroup"></path>
                <path d="M38,3 C38,3.552 37.552,4 37,4 C36.448,4 36,3.552 36,3 C36,2.448 36.448,2 37,2 C37.552,2 38,2.448 38,3" id="Fill-238" fill="#0096E6" sketch:type="MSShapeGroup"></path>
                <path d="M29,6 C29,6.552 28.552,7 28,7 C27.448,7 27,6.552 27,6 C27,5.448 27.448,5 28,5 C28.552,5 29,5.448 29,6" id="Fill-239" fill="#0096E6" sketch:type="MSShapeGroup"></path>
                <path d="M32,9 C32,9.552 31.552,10 31,10 C30.448,10 30,9.552 30,9 C30,8.448 30.448,8 31,8 C31.552,8 32,8.448 32,9" id="Fill-240" fill="#0096E6" sketch:type="MSShapeGroup"></path>
                <path d="M38,9 C38,9.552 37.552,10 37,10 C36.448,10 36,9.552 36,9 C36,8.448 36.448,8 37,8 C37.552,8 38,8.448 38,9" id="Fill-241" fill="#0096E6" sketch:type="MSShapeGroup"></path>
                <path d="M35,6 C35,6.552 34.552,7 34,7 C33.448,7 33,6.552 33,6 C33,5.448 33.448,5 34,5 C34.552,5 35,5.448 35,6" id="Fill-242" fill="#0096E6" sketch:type="MSShapeGroup"></path>
                <path d="M41,6 C41,6.552 40.552,7 40,7 C39.448,7 39,6.552 39,6 C39,5.448 39.448,5 40,5 C40.552,5 41,5.448 41,6" id="Fill-243" fill="#0096E6" sketch:type="MSShapeGroup"></path>
                <path d="M47,6 C47,6.552 46.552,7 46,7 C45.448,7 45,6.552 45,6 C45,5.448 45.448,5 46,5 C46.552,5 47,5.448 47,6" id="Fill-244" fill="#0096E6" sketch:type="MSShapeGroup"></path>
            </g>
        </g>
    </g>
</svg>