<?xml version="1.0" encoding="UTF-8" standalone="no"?>
<svg width="59px" height="50px" viewBox="0 0 59 50" version="1.1" xmlns="http://www.w3.org/2000/svg" xmlns:xlink="http://www.w3.org/1999/xlink" xmlns:sketch="http://www.bohemiancoding.com/sketch/ns">
    <!-- Generator: Sketch 3.2.2 (9983) - http://www.bohemiancoding.com/sketch -->
    <title>100 - Go Around and Multiply (Webby)</title>
    <desc>Created with Sketch.</desc>
    <defs></defs>
    <g id="Page-1" stroke="none" stroke-width="1" fill="none" fill-rule="evenodd" sketch:type="MSPage">
        <g id="Icons" sketch:type="MSArtboardGroup" transform="translate(-121.000000, -362.000000)">
            <g id="100---Go-Around-and-Multiply-(Webby)" sketch:type="MSLayerGroup" transform="translate(121.000000, 363.000000)">
                <path d="M58,24 L39,24" id="Path" stroke="#0096E6" stroke-width="2" stroke-linecap="round" sketch:type="MSShapeGroup"></path>
                <path d="M40,24 L31,24" id="Path" stroke="#0096E6" stroke-width="2" stroke-linecap="round" sketch:type="MSShapeGroup"></path>
                <path d="M58,24 L49,33" id="Path" stroke="#0096E6" stroke-width="2" stroke-linecap="round" sketch:type="MSShapeGroup"></path>
                <path d="M58,24 L49,15" id="Path" stroke="#0096E6" stroke-width="2" stroke-linecap="round" sketch:type="MSShapeGroup"></path>
                <path d="M14,39 L5,48" id="Path" stroke="#0096E6" stroke-width="2" stroke-linecap="round" sketch:type="MSShapeGroup"></path>
                <path d="M14,39 L5,30" id="Path" stroke="#0096E6" stroke-width="2" stroke-linecap="round" sketch:type="MSShapeGroup"></path>
                <path d="M14,9 L5,18" id="Path" stroke="#0096E6" stroke-width="2" stroke-linecap="round" sketch:type="MSShapeGroup"></path>
                <path d="M14,9 L5,0" id="Path" stroke="#0096E6" stroke-width="2" stroke-linecap="round" sketch:type="MSShapeGroup"></path>
                <path d="M14,9 L31,9 L31,39 L14,39" id="Path" stroke="#0096E6" stroke-width="2" stroke-linecap="round" stroke-dasharray="3" sketch:type="MSShapeGroup"></path>
                <path d="M16,15 L26,15 L26,33 L16,33 L16,15 Z" id="Fill-2" fill="#D0E8F9" sketch:type="MSShapeGroup"></path>
                <path d="M16,15 L26,15 L26,33 L16,33 L16,15 Z" id="Stroke-3" stroke="#0096E6" stroke-width="2" stroke-linecap="round" sketch:type="MSShapeGroup"></path>
                <path d="M13,39 L0,39 L13,39 Z" id="Path" stroke="#0096E6" stroke-width="2" stroke-linecap="round" sketch:type="MSShapeGroup"></path>
                <path d="M13,9 L0,9 L13,9 Z" id="Path" stroke="#0096E6" stroke-width="2" stroke-linecap="round" sketch:type="MSShapeGroup"></path>
            </g>
        </g>
    </g>
</svg>