<?xml version="1.0" encoding="UTF-8" standalone="no"?>
<svg width="59px" height="60px" viewBox="0 0 59 60" version="1.1" xmlns="http://www.w3.org/2000/svg" xmlns:xlink="http://www.w3.org/1999/xlink" xmlns:sketch="http://www.bohemiancoding.com/sketch/ns">
    <!-- Generator: Sketch 3.2.2 (9983) - http://www.bohemiancoding.com/sketch -->
    <title>15 - Isotope (Webby)</title>
    <desc>Created with Sketch.</desc>
    <defs></defs>
    <g id="Page-1" stroke="none" stroke-width="1" fill="none" fill-rule="evenodd" sketch:type="MSPage">
        <g id="Icons" sketch:type="MSArtboardGroup" transform="translate(-721.000000, -1317.000000)">
            <g id="15---Isotope-(Webby)" sketch:type="MSLayerGroup" transform="translate(722.000000, 1318.000000)">
                <path d="M0,0 L57,0 L57,58 L0,58 L0,0 Z" id="Fill-1726" fill="#FFFFFF" sketch:type="MSShapeGroup"></path>
                <path d="M0,0 L57,0 L57,58 L0,58 L0,0 Z" id="Stroke-1727" stroke="#0096E6" stroke-width="2" stroke-linecap="round" stroke-linejoin="round" sketch:type="MSShapeGroup"></path>
                <path d="M0,0 L57,0 L57,12 L0,12 L0,0 Z" id="Fill-1728" fill="#D0E8F9" sketch:type="MSShapeGroup"></path>
                <path d="M0,0 L57,0 L57,12 L0,12 L0,0 Z" id="Stroke-1729" stroke="#0096E6" stroke-width="2" stroke-linecap="round" stroke-linejoin="round" sketch:type="MSShapeGroup"></path>
                <path d="M9,6 C9,7.657 7.657,9 6,9 C4.343,9 3,7.657 3,6 C3,4.343 4.343,3 6,3 C7.657,3 9,4.343 9,6 L9,6 Z" id="Fill-1874" fill="#FFFFFF" sketch:type="MSShapeGroup"></path>
                <path d="M9,6 C9,7.657 7.657,9 6,9 C4.343,9 3,7.657 3,6 C3,4.343 4.343,3 6,3 C7.657,3 9,4.343 9,6 L9,6 Z" id="Stroke-1875" stroke="#0096E6" stroke-width="2" stroke-linecap="round" stroke-linejoin="round" sketch:type="MSShapeGroup"></path>
                <path d="M18,6 C18,7.657 16.657,9 15,9 C13.343,9 12,7.657 12,6 C12,4.343 13.343,3 15,3 C16.657,3 18,4.343 18,6 L18,6 Z" id="Fill-1876" fill="#FFFFFF" sketch:type="MSShapeGroup"></path>
                <path d="M18,6 C18,7.657 16.657,9 15,9 C13.343,9 12,7.657 12,6 C12,4.343 13.343,3 15,3 C16.657,3 18,4.343 18,6 L18,6 Z" id="Stroke-1877" stroke="#0096E6" stroke-width="2" stroke-linecap="round" stroke-linejoin="round" sketch:type="MSShapeGroup"></path>
                <path d="M27,6 C27,7.657 25.657,9 24,9 C22.343,9 21,7.657 21,6 C21,4.343 22.343,3 24,3 C25.657,3 27,4.343 27,6 L27,6 Z" id="Fill-1878" fill="#FFFFFF" sketch:type="MSShapeGroup"></path>
                <path d="M27,6 C27,7.657 25.657,9 24,9 C22.343,9 21,7.657 21,6 C21,4.343 22.343,3 24,3 C25.657,3 27,4.343 27,6 L27,6 Z" id="Stroke-1879" stroke="#0096E6" stroke-width="2" stroke-linecap="round" stroke-linejoin="round" sketch:type="MSShapeGroup"></path>
                <path d="M4,44 L17,44 L17,54 L4,54 L4,44 Z" id="Fill-1880" fill="#D0E8F9" sketch:type="MSShapeGroup"></path>
                <path d="M4,44 L17,44 L17,54 L4,54 L4,44 Z" id="Stroke-1881" stroke="#0096E6" stroke-width="2" stroke-linecap="round" stroke-linejoin="round" sketch:type="MSShapeGroup"></path>
                <path d="M22,44 L35,44 L35,54 L22,54 L22,44 Z" id="Fill-1882" fill="#D0E8F9" sketch:type="MSShapeGroup"></path>
                <path d="M22,44 L35,44 L35,54 L22,54 L22,44 Z" id="Stroke-1883" stroke="#0096E6" stroke-width="2" stroke-linecap="round" stroke-linejoin="round" sketch:type="MSShapeGroup"></path>
                <path d="M4,16 L17,16 L17,26 L4,26 L4,16 Z" id="Fill-1884" fill="#D0E8F9" sketch:type="MSShapeGroup"></path>
                <path d="M4,16 L17,16 L17,26 L4,26 L4,16 Z" id="Stroke-1885" stroke="#0096E6" stroke-width="2" stroke-linecap="round" stroke-linejoin="round" sketch:type="MSShapeGroup"></path>
                <path d="M22,16 L35,16 L35,26 L22,26 L22,16 Z" id="Fill-1886" fill="#D0E8F9" sketch:type="MSShapeGroup"></path>
                <path d="M22,16 L35,16 L35,26 L22,26 L22,16 Z" id="Stroke-1887" stroke="#0096E6" stroke-width="2" stroke-linecap="round" stroke-linejoin="round" sketch:type="MSShapeGroup"></path>
                <path d="M40,16 L53,16 L53,26 L40,26 L40,16 Z" id="Fill-1888" fill="#D0E8F9" sketch:type="MSShapeGroup"></path>
                <path d="M40,16 L53,16 L53,26 L40,26 L40,16 Z" id="Stroke-1889" stroke="#0096E6" stroke-width="2" stroke-linecap="round" stroke-linejoin="round" sketch:type="MSShapeGroup"></path>
                <path d="M4,30 L17,30 L17,40 L4,40 L4,30 Z" id="Fill-1890" fill="#FFFFFF" sketch:type="MSShapeGroup"></path>
                <path d="M4,30 L17,30 L17,40 L4,40 L4,30 Z" id="Stroke-1891" stroke="#0096E6" stroke-width="2" stroke-linecap="round" stroke-linejoin="round" sketch:type="MSShapeGroup"></path>
                <path d="M40,44 L53,44 L53,54 L40,54 L40,44 Z" id="Fill-1892" fill="#FFFFFF" sketch:type="MSShapeGroup"></path>
                <path d="M40,44 L53,44 L53,54 L40,54 L40,44 Z" id="Stroke-1893" stroke="#0096E6" stroke-width="2" stroke-linecap="round" stroke-linejoin="round" sketch:type="MSShapeGroup"></path>
                <path d="M22,30 L35,30 L35,40 L22,40 L22,30 Z" id="Fill-1894" fill="#D0E8F9" sketch:type="MSShapeGroup"></path>
                <path d="M22,30 L35,30 L35,40 L22,40 L22,30 Z" id="Stroke-1895" stroke="#0096E6" stroke-width="2" stroke-linecap="round" stroke-linejoin="round" sketch:type="MSShapeGroup"></path>
                <path d="M40,30 L53,30 L53,40 L40,40 L40,30 Z" id="Fill-1896" fill="#D0E8F9" sketch:type="MSShapeGroup"></path>
                <path d="M40,30 L53,30 L53,40 L40,40 L40,30 Z" id="Stroke-1897" stroke="#0096E6" stroke-width="2" stroke-linecap="round" stroke-linejoin="round" sketch:type="MSShapeGroup"></path>
                <path d="M51,47 C50.448,47 50,46.552 50,46 C50,45.448 50.448,45 51,45 C51.552,45 52,45.448 52,46 C52,46.552 51.552,47 51,47" id="Fill-1898" fill="#0096E6" sketch:type="MSShapeGroup"></path>
                <path d="M48,50 C47.448,50 47,49.552 47,49 C47,48.448 47.448,48 48,48 C48.552,48 49,48.448 49,49 C49,49.552 48.552,50 48,50" id="Fill-1899" fill="#0096E6" sketch:type="MSShapeGroup"></path>
                <path d="M51,53 C50.448,53 50,52.552 50,52 C50,51.448 50.448,51 51,51 C51.552,51 52,51.448 52,52 C52,52.552 51.552,53 51,53" id="Fill-1900" fill="#0096E6" sketch:type="MSShapeGroup"></path>
                <path d="M45,47 C44.448,47 44,46.552 44,46 C44,45.448 44.448,45 45,45 C45.552,45 46,45.448 46,46 C46,46.552 45.552,47 45,47" id="Fill-1901" fill="#0096E6" sketch:type="MSShapeGroup"></path>
                <path d="M42,50 C41.448,50 41,49.552 41,49 C41,48.448 41.448,48 42,48 C42.552,48 43,48.448 43,49 C43,49.552 42.552,50 42,50" id="Fill-1902" fill="#0096E6" sketch:type="MSShapeGroup"></path>
                <path d="M45,53 C44.448,53 44,52.552 44,52 C44,51.448 44.448,51 45,51 C45.552,51 46,51.448 46,52 C46,52.552 45.552,53 45,53" id="Fill-1903" fill="#0096E6" sketch:type="MSShapeGroup"></path>
                <path d="M6,37 C6.552,37 7,37.448 7,38 C7,38.552 6.552,39 6,39 C5.448,39 5,38.552 5,38 C5,37.448 5.448,37 6,37" id="Fill-1904" fill="#0096E6" sketch:type="MSShapeGroup"></path>
                <path d="M9,34 C9.552,34 10,34.448 10,35 C10,35.552 9.552,36 9,36 C8.448,36 8,35.552 8,35 C8,34.448 8.448,34 9,34" id="Fill-1905" fill="#0096E6" sketch:type="MSShapeGroup"></path>
                <path d="M6,31 C6.552,31 7,31.448 7,32 C7,32.552 6.552,33 6,33 C5.448,33 5,32.552 5,32 C5,31.448 5.448,31 6,31" id="Fill-1906" fill="#0096E6" sketch:type="MSShapeGroup"></path>
                <path d="M12,37 C12.552,37 13,37.448 13,38 C13,38.552 12.552,39 12,39 C11.448,39 11,38.552 11,38 C11,37.448 11.448,37 12,37" id="Fill-1907" fill="#0096E6" sketch:type="MSShapeGroup"></path>
                <path d="M15,34 C15.552,34 16,34.448 16,35 C16,35.552 15.552,36 15,36 C14.448,36 14,35.552 14,35 C14,34.448 14.448,34 15,34" id="Fill-1908" fill="#0096E6" sketch:type="MSShapeGroup"></path>
                <path d="M12,31 C12.552,31 13,31.448 13,32 C13,32.552 12.552,33 12,33 C11.448,33 11,32.552 11,32 C11,31.448 11.448,31 12,31" id="Fill-1909" fill="#0096E6" sketch:type="MSShapeGroup"></path>
            </g>
        </g>
    </g>
</svg>