<?xml version="1.0" encoding="UTF-8" standalone="no"?>
<svg width="60px" height="53px" viewBox="0 0 60 53" version="1.1" xmlns="http://www.w3.org/2000/svg" xmlns:xlink="http://www.w3.org/1999/xlink" xmlns:sketch="http://www.bohemiancoding.com/sketch/ns">
    <!-- Generator: Sketch 3.2.2 (9983) - http://www.bohemiancoding.com/sketch -->
    <title>20 - Motherboard (Webby)</title>
    <desc>Created with Sketch.</desc>
    <defs></defs>
    <g id="Page-1" stroke="none" stroke-width="1" fill="none" fill-rule="evenodd" sketch:type="MSPage">
        <g id="Icons" sketch:type="MSArtboardGroup" transform="translate(-120.000000, -1320.000000)">
            <g id="20---Motherboard-(Webby)" sketch:type="MSLayerGroup" transform="translate(121.000000, 1321.000000)">
                <path d="M0,3 L58,3 L58,51 L0,51 L0,3 Z" id="Fill-1472" fill="#FFFFFF" sketch:type="MSShapeGroup"></path>
                <path d="M0,3 L58,3 L58,51 L0,51 L0,3 Z" id="Stroke-1473" stroke="#0096E6" stroke-width="2" stroke-linecap="round" stroke-linejoin="round" sketch:type="MSShapeGroup"></path>
                <path d="M28,21 C28,21.552 27.552,22 27,22 C26.448,22 26,21.552 26,21 C26,20.448 26.448,20 27,20 C27.552,20 28,20.448 28,21" id="Fill-1494" fill="#0096E6" sketch:type="MSShapeGroup"></path>
                <path d="M28,24 C28,24.552 27.552,25 27,25 C26.448,25 26,24.552 26,24 C26,23.448 26.448,23 27,23 C27.552,23 28,23.448 28,24" id="Fill-1495" fill="#0096E6" sketch:type="MSShapeGroup"></path>
                <path d="M28,27 C28,27.552 27.552,28 27,28 C26.448,28 26,27.552 26,27 C26,26.448 26.448,26 27,26 C27.552,26 28,26.448 28,27" id="Fill-1496" fill="#0096E6" sketch:type="MSShapeGroup"></path>
                <path d="M28,12 C28,12.552 27.552,13 27,13 C26.448,13 26,12.552 26,12 C26,11.448 26.448,11 27,11 C27.552,11 28,11.448 28,12" id="Fill-1497" fill="#0096E6" sketch:type="MSShapeGroup"></path>
                <path d="M25,14 C25,14.552 24.552,15 24,15 C23.448,15 23,14.552 23,14 C23,13.448 23.448,13 24,13 C24.552,13 25,13.448 25,14" id="Fill-1498" fill="#0096E6" sketch:type="MSShapeGroup"></path>
                <path d="M25,18 C25,18.552 24.552,19 24,19 C23.448,19 23,18.552 23,18 C23,17.448 23.448,17 24,17 C24.552,17 25,17.448 25,18" id="Fill-1499" fill="#0096E6" sketch:type="MSShapeGroup"></path>
                <path d="M56,14 C56,14.552 55.552,15 55,15 C54.448,15 54,14.552 54,14 C54,13.448 54.448,13 55,13 C55.552,13 56,13.448 56,14" id="Fill-1500" fill="#0096E6" sketch:type="MSShapeGroup"></path>
                <path d="M56,21 C56,21.552 55.552,22 55,22 C54.448,22 54,21.552 54,21 C54,20.448 54.448,20 55,20 C55.552,20 56,20.448 56,21" id="Fill-1501" fill="#0096E6" sketch:type="MSShapeGroup"></path>
                <path d="M19,35 C19,35.552 18.552,36 18,36 C17.448,36 17,35.552 17,35 C17,34.448 17.448,34 18,34 C18.552,34 19,34.448 19,35" id="Fill-1502" fill="#0096E6" sketch:type="MSShapeGroup"></path>
                <path d="M16,35 C16,35.552 15.552,36 15,36 C14.448,36 14,35.552 14,35 C14,34.448 14.448,34 15,34 C15.552,34 16,34.448 16,35" id="Fill-1503" fill="#0096E6" sketch:type="MSShapeGroup"></path>
                <path d="M13,35 C13,35.552 12.552,36 12,36 C11.448,36 11,35.552 11,35 C11,34.448 11.448,34 12,34 C12.552,34 13,34.448 13,35" id="Fill-1504" fill="#0096E6" sketch:type="MSShapeGroup"></path>
                <path d="M4,23 C4,23.552 3.552,24 3,24 C2.448,24 2,23.552 2,23 C2,22.448 2.448,22 3,22 C3.552,22 4,22.448 4,23" id="Fill-1505" fill="#0096E6" sketch:type="MSShapeGroup"></path>
                <path d="M4,26 C4,26.552 3.552,27 3,27 C2.448,27 2,26.552 2,26 C2,25.448 2.448,25 3,25 C3.552,25 4,25.448 4,26" id="Fill-1506" fill="#0096E6" sketch:type="MSShapeGroup"></path>
                <path d="M4,29 C4,29.552 3.552,30 3,30 C2.448,30 2,29.552 2,29 C2,28.448 2.448,28 3,28 C3.552,28 4,28.448 4,29" id="Fill-1507" fill="#0096E6" sketch:type="MSShapeGroup"></path>
                <path d="M28,15 C28,15.552 27.552,16 27,16 C26.448,16 26,15.552 26,15 C26,14.448 26.448,14 27,14 C27.552,14 28,14.448 28,15" id="Fill-1508" fill="#0096E6" sketch:type="MSShapeGroup"></path>
                <path d="M28,18 C28,18.552 27.552,19 27,19 C26.448,19 26,18.552 26,18 C26,17.448 26.448,17 27,17 C27.552,17 28,17.448 28,18" id="Fill-1509" fill="#0096E6" sketch:type="MSShapeGroup"></path>
                <path d="M50.291,27 L33.709,27 C32.765,27 32,26.235 32,25.29 L32,8.71 C32,7.765 32.765,7 33.709,7 L50.291,7 C51.235,7 52,7.765 52,8.71 L52,25.29 C52,26.235 51.235,27 50.291,27 L50.291,27 Z" id="Fill-1547" fill="#FFFFFF" sketch:type="MSShapeGroup"></path>
                <path d="M50.291,27 L33.709,27 C32.765,27 32,26.235 32,25.29 L32,8.71 C32,7.765 32.765,7 33.709,7 L50.291,7 C51.235,7 52,7.765 52,8.71 L52,25.29 C52,26.235 51.235,27 50.291,27 L50.291,27 Z" id="Stroke-1548" stroke="#0096E6" stroke-width="2" stroke-linecap="round" stroke-linejoin="round" sketch:type="MSShapeGroup"></path>
                <path d="M32,0 L36,0 L36,3 L32,3 L32,0 Z" id="Fill-1549" fill="#FFFFFF" sketch:type="MSShapeGroup"></path>
                <path d="M32,0 L36,0 L36,3 L32,3 L32,0 Z" id="Stroke-1550" stroke="#0096E6" stroke-width="2" stroke-linecap="round" stroke-linejoin="round" sketch:type="MSShapeGroup"></path>
                <path d="M36,0 L40,0 L40,3 L36,3 L36,0 Z" id="Fill-1551" fill="#FFFFFF" sketch:type="MSShapeGroup"></path>
                <path d="M36,0 L40,0 L40,3 L36,3 L36,0 Z" id="Stroke-1552" stroke="#0096E6" stroke-width="2" stroke-linecap="round" stroke-linejoin="round" sketch:type="MSShapeGroup"></path>
                <path d="M40,0 L44,0 L44,3 L40,3 L40,0 Z" id="Fill-1553" fill="#FFFFFF" sketch:type="MSShapeGroup"></path>
                <path d="M40,0 L44,0 L44,3 L40,3 L40,0 Z" id="Stroke-1554" stroke="#0096E6" stroke-width="2" stroke-linecap="round" stroke-linejoin="round" sketch:type="MSShapeGroup"></path>
                <path d="M44,0 L48,0 L48,3 L44,3 L44,0 Z" id="Fill-1555" fill="#FFFFFF" sketch:type="MSShapeGroup"></path>
                <path d="M44,0 L48,0 L48,3 L44,3 L44,0 Z" id="Stroke-1556" stroke="#0096E6" stroke-width="2" stroke-linecap="round" stroke-linejoin="round" sketch:type="MSShapeGroup"></path>
                <path d="M48,0 L52,0 L52,3 L48,3 L48,0 Z" id="Fill-1557" fill="#FFFFFF" sketch:type="MSShapeGroup"></path>
                <path d="M48,0 L52,0 L52,3 L48,3 L48,0 Z" id="Stroke-1558" stroke="#0096E6" stroke-width="2" stroke-linecap="round" stroke-linejoin="round" sketch:type="MSShapeGroup"></path>
                <path d="M26,43 L52,43 L52,47 L26,47 L26,43 Z M26,39 L52,39 L52,43 L26,43 L26,39 Z M26,35 L52,35 L52,39 L26,39 L26,35 Z M26,31 L52,31 L52,35 L26,35 L26,31 Z" id="Stroke-1559" stroke="#0096E6" stroke-width="2" stroke-linecap="round" stroke-linejoin="round" sketch:type="MSShapeGroup"></path>
                <path d="M16,3 L20,3 L20,26 L16,26 L16,3 Z" id="Fill-1560" fill="#D0E8F9" sketch:type="MSShapeGroup"></path>
                <path d="M16,3 L20,3 L20,26 L16,26 L16,3 Z" id="Stroke-1561" stroke="#0096E6" stroke-width="2" stroke-linecap="round" stroke-linejoin="round" sketch:type="MSShapeGroup"></path>
                <path d="M8,3 L12,3 L12,20 L8,20 L8,3 Z" id="Fill-1562" fill="#D0E8F9" sketch:type="MSShapeGroup"></path>
                <path d="M8,3 L12,3 L12,20 L8,20 L8,3 Z" id="Stroke-1563" stroke="#0096E6" stroke-width="2" stroke-linecap="round" stroke-linejoin="round" sketch:type="MSShapeGroup"></path>
                <path d="M26,33 L24,33 M26,37 L24,37 M54,33 L52,33 M54,37 L52,37 M26,41 L24,41 M26,45 L24,45 M54,41 L52,41 M54,45 L52,45 M29,31 L29,47 M49,31 L49,47" id="Stroke-1564" stroke="#0096E6" stroke-width="2" stroke-linecap="round" stroke-linejoin="round" sketch:type="MSShapeGroup"></path>
                <path d="M12,39 L18,39 L18,46 L12,46 L12,39 Z" id="Fill-1565" fill="#D0E8F9" sketch:type="MSShapeGroup"></path>
                <path d="M12,39 L18,39 L18,46 L12,46 L12,39 Z" id="Stroke-1566" stroke="#0096E6" stroke-width="2" stroke-linecap="round" stroke-linejoin="round" sketch:type="MSShapeGroup"></path>
                <path d="M18,41 L20,41 M18,44 L20,44 M10,41 L12,41 M10,44 L12,44 M0,36 L3,36 M0,39 L3,39 M0,42 L3,42 M0,45 L3,45 M0,48 L3,48 M29,3 L29,1 M26,3 L26,1 M55,3 L55,1 M10,20 L10,22 M18,26 L18,28 M0,8 L3,8 M0,11 L3,11 M0,14 L3,14" id="Stroke-1567" stroke="#0096E6" stroke-width="2" stroke-linecap="round" stroke-linejoin="round" sketch:type="MSShapeGroup"></path>
                <path d="M7,26 L12,26 L12,31 L7,31 L7,26 Z" id="Fill-1568" fill="#D0E8F9" sketch:type="MSShapeGroup"></path>
                <path d="M7,26 L12,26 L12,31 L7,31 L7,26 Z" id="Stroke-1569" stroke="#0096E6" stroke-width="2" stroke-linecap="round" stroke-linejoin="round" sketch:type="MSShapeGroup"></path>
                <path d="M37,12 L47,12 L47,22 L37,22 L37,12 Z" id="Fill-1579" fill="#D0E8F9" sketch:type="MSShapeGroup"></path>
                <path d="M37,12 L47,12 L47,22 L37,22 L37,12 Z" id="Stroke-1580" stroke="#0096E6" stroke-width="2" stroke-linecap="round" stroke-linejoin="round" sketch:type="MSShapeGroup"></path>
                <path d="M39,12 L39,9 M42,12 L42,9 M45,12 L45,9 M39,25 L39,22 M42,25 L42,22 M45,25 L45,22 M47,14 L50,14 M47,17 L50,17 M47,20 L50,20 M34,14 L37,14 M34,17 L37,17 M34,20 L37,20" id="Stroke-1581" stroke="#0096E6" stroke-width="2" stroke-linecap="round" stroke-linejoin="round" sketch:type="MSShapeGroup"></path>
            </g>
        </g>
    </g>
</svg>