<?xml version="1.0" encoding="UTF-8" standalone="no"?>
<svg width="57px" height="56px" viewBox="0 0 57 56" version="1.1" xmlns="http://www.w3.org/2000/svg" xmlns:xlink="http://www.w3.org/1999/xlink" xmlns:sketch="http://www.bohemiancoding.com/sketch/ns">
    <!-- Generator: Sketch 3.2.2 (9983) - http://www.bohemiancoding.com/sketch -->
    <title>99 - Orbit Around (Webby)</title>
    <desc>Created with Sketch.</desc>
    <defs></defs>
    <g id="Page-1" stroke="none" stroke-width="1" fill="none" fill-rule="evenodd" sketch:type="MSPage">
        <g id="Icons" sketch:type="MSArtboardGroup" transform="translate(-242.000000, -359.000000)">
            <g id="99---Orbit-Around-(Webby)" sketch:type="MSLayerGroup" transform="translate(243.000000, 360.000000)">
                <path d="M54,27 C54,41.912 41.912,54 27,54 C12.088,54 0,41.912 0,27 C0,12.088 12.088,0 27,0 C41.912,0 54,12.088 54,27 L54,27 Z" id="Path" stroke="#0096E6" stroke-width="2" stroke-linecap="round" stroke-linejoin="round" stroke-dasharray="3" sketch:type="MSShapeGroup"></path>
                <path d="M10,6 L1,6 L10,6 Z" id="Path" stroke="#0096E6" stroke-width="2" stroke-linecap="round" sketch:type="MSShapeGroup"></path>
                <path d="M10,6 L10,15 L10,6 Z" id="Path" stroke="#0096E6" stroke-width="2" stroke-linecap="round" sketch:type="MSShapeGroup"></path>
                <path d="M38,27 C38,33.075 33.075,38 27,38 C20.925,38 16,33.075 16,27 C16,20.925 20.925,16 27,16 C33.075,16 38,20.925 38,27 L38,27 Z" id="Fill-5" fill="#D0E8F9" sketch:type="MSShapeGroup"></path>
                <path d="M38,27 C38,33.075 33.075,38 27,38 C20.925,38 16,33.075 16,27 C16,20.925 20.925,16 27,16 C33.075,16 38,20.925 38,27 L38,27 Z" id="Stroke-6" stroke="#0096E6" stroke-width="2" stroke-linecap="round" sketch:type="MSShapeGroup"></path>
                <path d="M46,46 L55,46 M46,46 L46,37" id="Stroke-7" stroke="#0096E6" stroke-width="2" stroke-linecap="round" sketch:type="MSShapeGroup"></path>
            </g>
        </g>
    </g>
</svg>