<svg id="Layer_1" data-name="Layer 1" xmlns="http://www.w3.org/2000/svg" viewBox="0 0 60 60"><title>Artboard 1</title><path d="M10.94,24.54A7.49,7.49,0,0,1,12,24.46a2.31,2.31,0,0,1,1.64.5,1.86,1.86,0,0,1,.57,1.45A2.14,2.14,0,0,1,13.67,28a2.49,2.49,0,0,1-1.79.58,8.6,8.6,0,0,1-.95,0Zm.52,3.57a3.24,3.24,0,0,0,.53,0,1.55,1.55,0,0,0,1.72-1.71,1.44,1.44,0,0,0-1.64-1.56,3,3,0,0,0-.61.05Z"/><path d="M17.57,27.05a1.42,1.42,0,0,1-1.45,1.54,1.38,1.38,0,0,1-1.39-1.49,1.42,1.42,0,0,1,1.44-1.54A1.38,1.38,0,0,1,17.57,27.05Zm-2.3,0c0,.64.37,1.12.88,1.12s.88-.47.88-1.13c0-.49-.25-1.12-.87-1.12S15.26,26.53,15.26,27.08Z"/><path d="M18.4,25.63l.38,1.48c.08.32.16.62.22.92h0c.07-.29.16-.61.26-.92l.47-1.48h.44l.45,1.45c.11.35.19.65.26.95h0a8.75,8.75,0,0,1,.22-.94l.41-1.46h.52l-.94,2.9h-.48l-.44-1.38a9.64,9.64,0,0,1-.26-1h0a8.69,8.69,0,0,1-.26,1l-.47,1.38h-.48l-.88-2.9Z"/><path d="M22.61,26.41c0-.3,0-.54,0-.79h.47l0,.48h0a1.07,1.07,0,0,1,1-.55c.4,0,1,.24,1,1.24v1.73h-.53V26.86c0-.47-.17-.86-.67-.86a.75.75,0,0,0-.71.54.76.76,0,0,0,0,.25v1.75h-.53Z"/><path d="M25.94,24.27h.53v4.26h-.53Z"/><path d="M30,27.05a1.42,1.42,0,0,1-1.45,1.54,1.38,1.38,0,0,1-1.39-1.49,1.42,1.42,0,0,1,1.44-1.54A1.38,1.38,0,0,1,30,27.05Zm-2.3,0c0,.64.37,1.12.88,1.12s.88-.47.88-1.13c0-.49-.25-1.12-.87-1.12S27.68,26.53,27.68,27.08Z"/><path d="M32.25,28.53l0-.37h0a1.08,1.08,0,0,1-.89.43.83.83,0,0,1-.89-.83c0-.7.62-1.08,1.75-1.08v-.06A.6.6,0,0,0,31.5,26a1.44,1.44,0,0,0-.76.22l-.12-.35a1.8,1.8,0,0,1,1-.26c.89,0,1.1.61,1.1,1.19v1.09a4.07,4.07,0,0,0,0,.7ZM32.18,27c-.58,0-1.23.09-1.23.65a.47.47,0,0,0,.5.5.72.72,0,0,0,.7-.49.54.54,0,0,0,0-.17Z"/><path d="M36,24.27v3.51c0,.26,0,.55,0,.75h-.47l0-.5h0a1.07,1.07,0,0,1-1,.57,1.32,1.32,0,0,1-1.24-1.48,1.39,1.39,0,0,1,1.3-1.56,1,1,0,0,1,.88.44h0V24.27Zm-.53,2.54a1,1,0,0,0,0-.22.78.78,0,0,0-.76-.61c-.55,0-.87.48-.87,1.12s.29,1.07.86,1.07a.79.79,0,0,0,.77-.63.94.94,0,0,0,0-.23Z"/><path d="M38.25,28.53V26h-.41v-.4h.41v-.14a1.37,1.37,0,0,1,.34-1,1,1,0,0,1,.71-.27,1.22,1.22,0,0,1,.45.08l-.07.41a.8.8,0,0,0-.34-.07c-.45,0-.56.4-.56.84v.16h.7V26h-.7v2.5Z"/><path d="M39.95,26.53c0-.34,0-.64,0-.91h.46l0,.57h0a.87.87,0,0,1,.8-.64l.15,0v.5l-.18,0a.74.74,0,0,0-.71.68,1.52,1.52,0,0,0,0,.25v1.55h-.52Z"/><path d="M44.47,27.05A1.42,1.42,0,0,1,43,28.59a1.38,1.38,0,0,1-1.39-1.49,1.42,1.42,0,0,1,1.44-1.54A1.37,1.37,0,0,1,44.47,27.05Zm-2.3,0c0,.64.37,1.12.88,1.12s.88-.47.88-1.13c0-.49-.25-1.12-.87-1.12S42.17,26.53,42.17,27.08Z"/><path d="M45.14,26.41c0-.3,0-.54,0-.79h.46l0,.47h0a1,1,0,0,1,.91-.53.86.86,0,0,1,.82.58h0a1.19,1.19,0,0,1,.32-.38,1,1,0,0,1,.64-.2c.38,0,1,.25,1,1.26v1.71h-.52V26.88c0-.56-.2-.89-.63-.89a.68.68,0,0,0-.62.48.88.88,0,0,0,0,.26v1.79H47V26.79c0-.46-.2-.8-.61-.8a.79.79,0,0,0-.7.79v1.75h-.52Z"/><path d="M9.88,35.19a1.38,1.38,0,0,0,.7.21c.38,0,.56-.19.56-.43s-.15-.39-.54-.53-.77-.47-.77-.82a.9.9,0,0,1,1-.85,1.44,1.44,0,0,1,.71.18l-.13.38a1.13,1.13,0,0,0-.59-.17c-.31,0-.49.18-.49.4s.17.35.55.49.76.44.76.88-.4.87-1.09.87a1.65,1.65,0,0,1-.82-.2Z"/><path d="M12.33,33.61c0-.3,0-.54,0-.79h.46l0,.47h0a1,1,0,0,1,.91-.53.86.86,0,0,1,.82.58h0a1.19,1.19,0,0,1,.32-.38,1,1,0,0,1,.64-.2c.38,0,1,.25,1,1.26v1.71H16V34.09c0-.56-.2-.89-.63-.89a.68.68,0,0,0-.62.48.87.87,0,0,0,0,.26v1.79h-.52V34c0-.46-.2-.8-.61-.8a.79.79,0,0,0-.7.79v1.75h-.52Z"/><path d="M18.94,35.73l0-.37h0a1.08,1.08,0,0,1-.89.43A.83.83,0,0,1,17.1,35c0-.7.62-1.08,1.75-1.08v-.06a.6.6,0,0,0-.66-.67,1.45,1.45,0,0,0-.76.22L17.31,33a1.81,1.81,0,0,1,1-.26c.89,0,1.1.61,1.1,1.19V35a4.12,4.12,0,0,0,0,.7Zm-.08-1.48c-.58,0-1.23.09-1.23.65a.47.47,0,0,0,.5.5.72.72,0,0,0,.7-.49.55.55,0,0,0,0-.17Z"/><path d="M20.15,35.19a1.38,1.38,0,0,0,.7.21c.38,0,.56-.19.56-.43s-.15-.39-.54-.53-.77-.47-.77-.82a.9.9,0,0,1,1-.85,1.44,1.44,0,0,1,.71.18l-.13.38a1.13,1.13,0,0,0-.59-.17c-.31,0-.49.18-.49.4s.17.35.55.49.76.44.76.88-.4.87-1.09.87a1.65,1.65,0,0,1-.82-.2Z"/><path d="M22.6,31.47h.53v1.81h0a1,1,0,0,1,.38-.37,1.09,1.09,0,0,1,.54-.15c.39,0,1,.24,1,1.24v1.73h-.53V34.06c0-.47-.17-.86-.67-.86a.76.76,0,0,0-.71.53.64.64,0,0,0,0,.25v1.75H22.6Z"/><path d="M26.52,32a.33.33,0,0,1-.65,0,.32.32,0,0,1,.33-.33A.31.31,0,0,1,26.52,32Zm-.59,3.72v-2.9h.53v2.9Z"/><path d="M29.4,35.62a1.94,1.94,0,0,1-.83.17,1.38,1.38,0,0,1-1.44-1.48,1.47,1.47,0,0,1,1.56-1.54,1.76,1.76,0,0,1,.73.15l-.12.41a1.22,1.22,0,0,0-.61-.14,1.09,1.09,0,0,0,0,2.18,1.49,1.49,0,0,0,.65-.14Z"/><path d="M32.61,34.25a1.42,1.42,0,0,1-1.45,1.54,1.38,1.38,0,0,1-1.39-1.49,1.42,1.42,0,0,1,1.44-1.54A1.37,1.37,0,0,1,32.61,34.25Zm-2.3,0c0,.64.37,1.12.88,1.12s.88-.47.88-1.13c0-.49-.25-1.12-.87-1.12S30.31,33.73,30.31,34.28Z"/><path d="M33.28,33.61c0-.3,0-.54,0-.79h.47l0,.48h0a1.07,1.07,0,0,1,1-.55c.4,0,1,.24,1,1.24v1.73h-.53V34.06c0-.47-.17-.86-.67-.86a.77.77,0,0,0-.74.79v1.75h-.53Z"/><path d="M36.54,35.19a1.37,1.37,0,0,0,.7.21c.38,0,.56-.19.56-.43s-.15-.39-.54-.53-.77-.47-.77-.82a.9.9,0,0,1,1-.85,1.44,1.44,0,0,1,.71.18l-.13.38a1.13,1.13,0,0,0-.59-.17c-.31,0-.49.18-.49.4s.17.35.55.49.76.44.76.88-.4.87-1.08.87a1.65,1.65,0,0,1-.82-.2Z"/><path d="M38.79,35.42a.35.35,0,0,1,.36-.38.38.38,0,1,1-.36.38Z"/><path d="M42.23,35.62a1.94,1.94,0,0,1-.83.17A1.38,1.38,0,0,1,40,34.31a1.47,1.47,0,0,1,1.56-1.54,1.76,1.76,0,0,1,.73.15l-.12.41a1.22,1.22,0,0,0-.61-.14,1.09,1.09,0,0,0,0,2.18,1.49,1.49,0,0,0,.65-.14Z"/><path d="M45.44,34.25A1.42,1.42,0,0,1,44,35.8,1.38,1.38,0,0,1,42.6,34.3,1.42,1.42,0,0,1,44,32.76,1.37,1.37,0,0,1,45.44,34.25Zm-2.3,0c0,.64.37,1.12.88,1.12s.88-.47.88-1.13c0-.49-.25-1.12-.87-1.12S43.14,33.73,43.14,34.28Z"/><path d="M46.11,33.61c0-.3,0-.54,0-.79h.46l0,.47h0a1,1,0,0,1,.91-.53.86.86,0,0,1,.82.58h0a1.19,1.19,0,0,1,.32-.38,1,1,0,0,1,.64-.2c.38,0,1,.25,1,1.26v1.71h-.52V34.09c0-.56-.2-.89-.63-.89a.68.68,0,0,0-.62.48.88.88,0,0,0,0,.26v1.79h-.52V34c0-.46-.2-.8-.61-.8a.79.79,0,0,0-.7.79v1.75h-.52Z"/></svg>