<?xml version="1.0" encoding="UTF-8" standalone="no"?>
<svg width="61px" height="60px" viewBox="0 0 61 60" version="1.1" xmlns="http://www.w3.org/2000/svg" xmlns:xlink="http://www.w3.org/1999/xlink" xmlns:sketch="http://www.bohemiancoding.com/sketch/ns">
    <!-- Generator: Sketch 3.2.2 (9983) - http://www.bohemiancoding.com/sketch -->
    <title>43 - Swiss Army Knife (Webby)</title>
    <desc>Created with Sketch.</desc>
    <defs></defs>
    <g id="Page-1" stroke="none" stroke-width="1" fill="none" fill-rule="evenodd" sketch:type="MSPage">
        <g id="Icons" sketch:type="MSArtboardGroup" transform="translate(-959.000000, -957.000000)">
            <g id="43---Swiss-Army-Knife-(Webby)" sketch:type="MSLayerGroup" transform="translate(960.000000, 958.000000)">
                <path d="M32.703,12.955 L41.896,22.147 L48.26,15.783 L32.703,0.227 C29.188,3.741 29.188,9.44 32.703,12.955 L32.703,12.955 Z" id="Fill-1096" fill="#D0E8F9" sketch:type="MSShapeGroup"></path>
                <path d="M32.703,12.955 L41.896,22.147 L48.26,15.783 L32.703,0.227 C29.188,3.741 29.188,9.44 32.703,12.955 L32.703,12.955 Z" id="Stroke-1097" stroke="#0096E6" stroke-width="2" stroke-linecap="round" stroke-linejoin="round" sketch:type="MSShapeGroup"></path>
                <path d="M22.804,41.239 L25.701,38.342 L17.505,35.817 C17.404,35.781 17.304,35.87 17.314,35.977 C17.883,41.978 10.223,35.845 8.699,34.713 C8.555,34.606 8.379,34.551 8.199,34.556 L3.45,34.685 C2.708,34.534 1.969,34.953 1.715,35.666 L0.914,37.92 C0.664,38.62 0.958,39.398 1.609,39.759 L5.8,42.086 L20.846,47.222 C20.533,45.101 21.18,42.862 22.804,41.239 L22.804,41.239 Z" id="Fill-1098" fill="#D0E8F9" sketch:type="MSShapeGroup"></path>
                <path d="M22.804,41.239 L25.701,38.342 L17.505,35.817 C17.404,35.781 17.304,35.87 17.314,35.977 C17.883,41.978 10.223,35.845 8.699,34.713 C8.555,34.606 8.379,34.551 8.199,34.556 L3.45,34.685 C2.708,34.534 1.969,34.953 1.715,35.666 L0.914,37.92 C0.664,38.62 0.958,39.398 1.609,39.759 L5.8,42.086 L20.846,47.222 C20.533,45.101 21.18,42.862 22.804,41.239 L22.804,41.239 Z" id="Stroke-1099" stroke="#0096E6" stroke-width="2" stroke-linecap="round" sketch:type="MSShapeGroup"></path>
                <path d="M56.745,27.097 L32.703,51.138 C29.981,53.861 25.526,53.861 22.804,51.138 C20.081,48.416 20.081,43.961 22.804,41.239 L46.845,17.197 C49.568,14.475 54.022,14.475 56.745,17.197 C59.467,19.919 59.467,24.374 56.745,27.097 L56.745,27.097 Z" id="Fill-1100" fill="#FFFFFF" sketch:type="MSShapeGroup"></path>
                <path d="M56.745,27.097 L32.703,51.138 C29.981,53.861 25.526,53.861 22.804,51.138 C20.081,48.416 20.081,43.961 22.804,41.239 L46.845,17.197 C49.568,14.475 54.022,14.475 56.745,17.197 C59.467,19.919 59.467,24.374 56.745,27.097 L56.745,27.097 Z" id="Stroke-1101" stroke="#0096E6" stroke-width="2" stroke-linecap="round" sketch:type="MSShapeGroup"></path>
                <path d="M35.531,7.298 L39.774,11.54 M46.825,21.967 L51.826,26.967 M51.826,21.967 L46.825,26.967 M42.021,36.163 L29.875,48.309 C29.314,48.871 28.56,49.18 27.753,49.18 C26.947,49.18 26.194,48.871 25.633,48.31" id="Stroke-1102" stroke="#0096E6" stroke-width="2" stroke-linecap="round" sketch:type="MSShapeGroup"></path>
                <path d="M31.289,32.753 L36.912,27.13 L34.396,21.82 L30.188,24.521 L27.837,19.376 L23.629,22.076 L21.278,16.932 L17.07,19.632 L14.719,14.487 L10.51,17.188 L8.238,12.216 C8.209,12.152 8.117,12.155 8.093,12.221 L5.715,18.602 C4.75,21.19 6.066,24.069 8.654,25.033 C8.654,25.033 31.117,32.925 31.289,32.753 L31.289,32.753 Z" id="Fill-1103" fill="#FFFFFF" sketch:type="MSShapeGroup"></path>
                <path d="M31.289,32.753 L36.912,27.13 L34.396,21.82 L30.188,24.521 L27.837,19.376 L23.629,22.076 L21.278,16.932 L17.07,19.632 L14.719,14.487 L10.51,17.188 L8.238,12.216 C8.209,12.152 8.117,12.155 8.093,12.221 L5.715,18.602 C4.75,21.19 6.066,24.069 8.654,25.033 C8.654,25.033 31.117,32.925 31.289,32.753 L31.289,32.753 Z" id="Stroke-1104" stroke="#0096E6" stroke-width="2" stroke-linecap="round" sketch:type="MSShapeGroup"></path>
                <path d="M9.632,40.265 L14,42 L9.632,40.265 Z M22.804,51.138 C22.602,50.937 22.42,50.723 22.248,50.504 C21.943,50.677 21.65,50.878 21.389,51.138 C19.827,52.7 19.827,55.233 21.389,56.795 C22.952,58.357 25.484,58.357 27.046,56.795 C28.033,55.808 28.393,54.434 28.133,53.162 C26.214,53.265 24.261,52.595 22.804,51.138 L22.804,51.138 Z" id="Stroke-1105" stroke="#0096E6" stroke-width="2" stroke-linecap="round" sketch:type="MSShapeGroup"></path>
            </g>
        </g>
    </g>
</svg>