<?xml version="1.0" encoding="UTF-8" standalone="no"?>
<svg width="59px" height="59px" viewBox="0 0 59 59" version="1.1" xmlns="http://www.w3.org/2000/svg" xmlns:xlink="http://www.w3.org/1999/xlink" xmlns:sketch="http://www.bohemiancoding.com/sketch/ns">
    <!-- Generator: Sketch 3.2.2 (9983) - http://www.bohemiancoding.com/sketch -->
    <title>94 - Toy Robot (Webby)</title>
    <desc>Created with Sketch.</desc>
    <defs></defs>
    <g id="Page-1" stroke="none" stroke-width="1" fill="none" fill-rule="evenodd" sketch:type="MSPage">
        <g id="Icons" sketch:type="MSArtboardGroup" transform="translate(-841.000000, -358.000000)">
            <g id="94---Toy-Robot-(Webby)" sketch:type="MSLayerGroup" transform="translate(842.000000, 359.000000)">
                <path d="M39.47,38 L17.53,38 C16.685,38 16,37.315 16,36.47 L16,20.53 C16,19.685 16.685,19 17.53,19 L39.47,19 C40.315,19 41,19.685 41,20.53 L41,36.47 C41,37.315 40.315,38 39.47,38 L39.47,38 Z" id="Fill-43" fill="#FFFFFF" sketch:type="MSShapeGroup"></path>
                <path d="M39.47,38 L17.53,38 C16.685,38 16,37.315 16,36.47 L16,20.53 C16,19.685 16.685,19 17.53,19 L39.47,19 C40.315,19 41,19.685 41,20.53 L41,36.47 C41,37.315 40.315,38 39.47,38 L39.47,38 Z" id="Stroke-44" stroke="#0096E6" stroke-width="2" sketch:type="MSShapeGroup"></path>
                <path d="M23,14 L34,14 L34,19 L23,19 L23,14 Z" id="Fill-45" fill="#FFFFFF" sketch:type="MSShapeGroup"></path>
                <path d="M23,14 L34,14 L34,19 L23,19 L23,14 Z" id="Stroke-46" stroke="#0096E6" stroke-width="2" sketch:type="MSShapeGroup"></path>
                <path d="M37,14 L20,14 L20,2.619 C20,1.173 21.173,0 22.619,0 L34.381,0 C35.827,0 37,1.173 37,2.619 L37,14 L37,14 Z" id="Fill-47" fill="#FFFFFF" sketch:type="MSShapeGroup"></path>
                <path d="M37,14 L20,14 L20,2.619 C20,1.173 21.173,0 22.619,0 L34.381,0 C35.827,0 37,1.173 37,2.619 L37,14 L37,14 Z" id="Stroke-48" stroke="#0096E6" stroke-width="2" sketch:type="MSShapeGroup"></path>
                <path d="M26,4 C26,4.552 25.552,5 25,5 C24.448,5 24,4.552 24,4 C24,3.448 24.448,3 25,3 C25.552,3 26,3.448 26,4" id="Fill-49" fill="#0096E6" sketch:type="MSShapeGroup"></path>
                <path d="M33,4 C33,4.552 32.552,5 32,5 C31.448,5 31,4.552 31,4 C31,3.448 31.448,3 32,3 C32.552,3 33,3.448 33,4" id="Fill-50" fill="#0096E6" sketch:type="MSShapeGroup"></path>
                <path d="M20,12 L17,11 L17,5 L20,4 L20,12 L20,12 Z" id="Fill-51" fill="#FFFFFF" sketch:type="MSShapeGroup"></path>
                <path d="M20,12 L17,11 L17,5 L20,4 L20,12 L20,12 Z" id="Stroke-52" stroke="#0096E6" stroke-width="2" sketch:type="MSShapeGroup"></path>
                <path d="M37,12 L40,11 L40,5 L37,4 L37,12 L37,12 Z" id="Fill-53" fill="#FFFFFF" sketch:type="MSShapeGroup"></path>
                <path d="M37,12 L40,11 L40,5 L37,4 L37,12 L37,12 Z" id="Stroke-54" stroke="#0096E6" stroke-width="2" sketch:type="MSShapeGroup"></path>
                <path d="M3,40 L7,40 C7,33.383 9.383,28 16,28 L16,24 C7.178,24 3,31.178 3,40 L3,40 Z" id="Fill-55" fill="#FFFFFF" sketch:type="MSShapeGroup"></path>
                <path d="M3,40 L7,40 C7,33.383 9.383,28 16,28 L16,24 C7.178,24 3,31.178 3,40 L3,40 Z" id="Stroke-56" stroke="#0096E6" stroke-width="2" sketch:type="MSShapeGroup"></path>
                <path d="M27,28 C27,30.209 25.209,32 23,32 C20.791,32 19,30.209 19,28 C19,25.791 20.791,24 23,24 C25.209,24 27,25.791 27,28 L27,28 Z" id="Fill-57" fill="#D0E8F9" sketch:type="MSShapeGroup"></path>
                <path d="M27,28 C27,30.209 25.209,32 23,32 C20.791,32 19,30.209 19,28 C19,25.791 20.791,24 23,24 C25.209,24 27,25.791 27,28 L27,28 Z" id="Stroke-58" stroke="#0096E6" stroke-width="2" sketch:type="MSShapeGroup"></path>
                <path d="M31,32 L38,32 M32,28 L38,28 M32,24 L38,24 M2.002,49.002 C0.787,48.09 0,46.637 0,45 C0,42.239 2.239,40 5,40 C7.761,40 10,42.239 10,45 C10,46.636 9.214,48.088 8,49" id="Stroke-59" stroke="#0096E6" stroke-width="2" stroke-linecap="round" sketch:type="MSShapeGroup"></path>
                <path d="M54,40 L50,40 C50,33.383 47.617,28 41,28 L41,24 C49.822,24 54,31.178 54,40 L54,40 Z" id="Fill-60" fill="#FFFFFF" sketch:type="MSShapeGroup"></path>
                <path d="M54,40 L50,40 C50,33.383 47.617,28 41,28 L41,24 C49.822,24 54,31.178 54,40 L54,40 Z" id="Stroke-61" stroke="#0096E6" stroke-width="2" sketch:type="MSShapeGroup"></path>
                <path d="M54.998,49.002 C56.213,48.09 57,46.637 57,45 C57,42.239 54.761,40 52,40 C49.239,40 47,42.239 47,45 C47,46.636 47.786,48.088 49,49" id="Stroke-62" stroke="#0096E6" stroke-width="2" stroke-linecap="round" sketch:type="MSShapeGroup"></path>
                <path d="M25,57 L15.853,57 C14.83,57 14,56.17 14,55.147 L14,53.853 C14,52.829 14.83,52 15.853,52 L25,52 L25,57 L25,57 Z" id="Fill-63" fill="#FFFFFF" sketch:type="MSShapeGroup"></path>
                <path d="M25,57 L15.853,57 C14.83,57 14,56.17 14,55.147 L14,53.853 C14,52.829 14.83,52 15.853,52 L25,52 L25,57 L25,57 Z" id="Stroke-64" stroke="#0096E6" stroke-width="2" stroke-linecap="round" sketch:type="MSShapeGroup"></path>
                <path d="M41.147,57 L32,57 L32,52 L41.147,52 C42.17,52 43,52.829 43,53.853 L43,55.147 C43,56.17 42.17,57 41.147,57 L41.147,57 Z" id="Fill-65" fill="#FFFFFF" sketch:type="MSShapeGroup"></path>
                <path d="M41.147,57 L32,57 L32,52 L41.147,52 C42.17,52 43,52.829 43,53.853 L43,55.147 C43,56.17 42.17,57 41.147,57 L41.147,57 Z" id="Stroke-66" stroke="#0096E6" stroke-width="2" stroke-linecap="round" sketch:type="MSShapeGroup"></path>
                <path d="M32,8 C32,9.933 30.433,11 28.5,11 C26.567,11 25,9.933 25,8" id="Stroke-67" stroke="#0096E6" stroke-width="2" stroke-linecap="round" sketch:type="MSShapeGroup"></path>
                <path d="M15,42 L21,42 L21,47 L15,47 L15,42 Z" id="Fill-68" fill="#D0E8F9" sketch:type="MSShapeGroup"></path>
                <path d="M15,42 L21,42 L21,47 L15,47 L15,42 Z" id="Stroke-69" stroke="#0096E6" stroke-width="2" stroke-linecap="round" stroke-linejoin="round" sketch:type="MSShapeGroup"></path>
                <path d="M36,42 L42,42 L42,47 L36,47 L36,42 Z" id="Fill-70" fill="#D0E8F9" sketch:type="MSShapeGroup"></path>
                <path d="M36,42 L42,42 L42,47 L36,47 L36,42 Z" id="Stroke-71" stroke="#0096E6" stroke-width="2" stroke-linecap="round" stroke-linejoin="round" sketch:type="MSShapeGroup"></path>
                <path d="M36,47 L36,42 L39,42 L39,38 L32,38 L32,52 L39,52 L39,47 L36,47 L36,47 Z" id="Fill-72" fill="#FFFFFF" sketch:type="MSShapeGroup"></path>
                <path d="M36,47 L36,42 L39,42 L39,38 L32,38 L32,52 L39,52 L39,47 L36,47 L36,47 Z" id="Stroke-73" stroke="#0096E6" stroke-width="2" stroke-linecap="round" sketch:type="MSShapeGroup"></path>
                <path d="M18,38 L18,42 L21,42 L21,47 L18,47 L18,52 L25,52 L25,38 L18,38 L18,38 Z" id="Fill-74" fill="#FFFFFF" sketch:type="MSShapeGroup"></path>
                <path d="M18,38 L18,42 L21,42 L21,47 L18,47 L18,52 L25,52 L25,38 L18,38 L18,38 Z" id="Stroke-75" stroke="#0096E6" stroke-width="2" stroke-linecap="round" sketch:type="MSShapeGroup"></path>
                <path d="M17,8 L12,8 M45,8 L40,8" id="Stroke-76" stroke="#0096E6" stroke-width="2" stroke-linecap="round" sketch:type="MSShapeGroup"></path>
                <path d="M51,8 C51,9.657 49.657,11 48,11 C46.343,11 45,9.657 45,8 C45,6.343 46.343,5 48,5 C49.657,5 51,6.343 51,8 L51,8 Z" id="Fill-77" fill="#D0E8F9" sketch:type="MSShapeGroup"></path>
                <path d="M51,8 C51,9.657 49.657,11 48,11 C46.343,11 45,9.657 45,8 C45,6.343 46.343,5 48,5 C49.657,5 51,6.343 51,8 L51,8 Z" id="Stroke-78" stroke="#0096E6" stroke-width="2" stroke-linecap="round" sketch:type="MSShapeGroup"></path>
                <path d="M12,8 C12,9.657 10.657,11 9,11 C7.343,11 6,9.657 6,8 C6,6.343 7.343,5 9,5 C10.657,5 12,6.343 12,8 L12,8 Z" id="Fill-79" fill="#D0E8F9" sketch:type="MSShapeGroup"></path>
                <path d="M12,8 C12,9.657 10.657,11 9,11 C7.343,11 6,9.657 6,8 C6,6.343 7.343,5 9,5 C10.657,5 12,6.343 12,8 L12,8 Z" id="Stroke-80" stroke="#0096E6" stroke-width="2" stroke-linecap="round" sketch:type="MSShapeGroup"></path>
            </g>
        </g>
    </g>
</svg>