<?xml version="1.0" encoding="UTF-8" standalone="no"?>
<svg width="60px" height="59px" viewBox="0 0 60 59" version="1.1" xmlns="http://www.w3.org/2000/svg" xmlns:xlink="http://www.w3.org/1999/xlink" xmlns:sketch="http://www.bohemiancoding.com/sketch/ns">
    <!-- Generator: Sketch 3.2.2 (9983) - http://www.bohemiancoding.com/sketch -->
    <title>88 - Vector (Webby)</title>
    <desc>Created with Sketch.</desc>
    <defs></defs>
    <g id="Page-1" stroke="none" stroke-width="1" fill="none" fill-rule="evenodd" sketch:type="MSPage">
        <g id="Icons" sketch:type="MSArtboardGroup" transform="translate(-360.000000, -478.000000)">
            <g id="88---Vector-(Webby)" sketch:type="MSLayerGroup" transform="translate(361.000000, 479.000000)">
                <path d="M0,29 L6,29 L6,35 L0,35 L0,29 Z" id="Fill-181" fill="#D0E8F9" sketch:type="MSShapeGroup"></path>
                <path d="M0,29 L6,29 L6,35 L0,35 L0,29 Z" id="Stroke-182" stroke="#0096E6" stroke-width="2" sketch:type="MSShapeGroup"></path>
                <path d="M52,29 L58,29 L58,35 L52,35 L52,29 Z" id="Fill-183" fill="#D0E8F9" sketch:type="MSShapeGroup"></path>
                <path d="M52,29 L58,29 L58,35 L52,35 L52,29 Z" id="Stroke-184" stroke="#0096E6" stroke-width="2" sketch:type="MSShapeGroup"></path>
                <path d="M26,0 L32,0 L32,6 L26,6 L26,0 Z" id="Fill-185" fill="#D0E8F9" sketch:type="MSShapeGroup"></path>
                <path d="M26,0 L32,0 L32,6 L26,6 L26,0 Z" id="Stroke-186" stroke="#0096E6" stroke-width="2" sketch:type="MSShapeGroup"></path>
                <path d="M55,29 C55,15.656 44.945,4.666 32,3.178 L32,6 L26,6 L26,3.178 C13.055,4.666 3,15.656 3,29" id="Stroke-187" stroke="#0096E6" stroke-width="2" stroke-linecap="round" stroke-dasharray="3" sketch:type="MSShapeGroup"></path>
                <path d="M6,3 C6,4.657 4.657,6 3,6 C1.343,6 0,4.657 0,3 C0,1.343 1.343,0 3,0 C4.657,0 6,1.343 6,3 L6,3 Z" id="Fill-188" fill="#D0E8F9" sketch:type="MSShapeGroup"></path>
                <path d="M6,3 C6,4.657 4.657,6 3,6 C1.343,6 0,4.657 0,3 C0,1.343 1.343,0 3,0 C4.657,0 6,1.343 6,3 L6,3 Z" id="Stroke-189" stroke="#0096E6" stroke-width="2" stroke-linecap="round" sketch:type="MSShapeGroup"></path>
                <path d="M58,3 C58,4.657 56.657,6 55,6 C53.343,6 52,4.657 52,3 C52,1.343 53.343,0 55,0 C56.657,0 58,1.343 58,3 L58,3 Z" id="Fill-190" fill="#D0E8F9" sketch:type="MSShapeGroup"></path>
                <path d="M58,3 C58,4.657 56.657,6 55,6 C53.343,6 52,4.657 52,3 C52,1.343 53.343,0 55,0 C56.657,0 58,1.343 58,3 L58,3 Z" id="Stroke-191" stroke="#0096E6" stroke-width="2" stroke-linecap="round" sketch:type="MSShapeGroup"></path>
                <path d="M6,3 L26,3 M32,3 L52,3" id="Stroke-192" stroke="#0096E6" stroke-width="2" stroke-linecap="round" sketch:type="MSShapeGroup"></path>
                <path d="M36,47 L22,47 L22,42.756 C22,39.025 18.975,36 15.244,36 L12,36 L29,10 L46,36 L42.756,36 C39.025,36 36,39.025 36,42.756 L36,47 L36,47 Z" id="Fill-193" fill="#FFFFFF" sketch:type="MSShapeGroup"></path>
                <path d="M36,47 L22,47 L22,42.756 C22,39.025 18.975,36 15.244,36 L12,36 L29,10 L46,36 L42.756,36 C39.025,36 36,39.025 36,42.756 L36,47 L36,47 Z" id="Stroke-194" stroke="#0096E6" stroke-width="2" stroke-linecap="round" sketch:type="MSShapeGroup"></path>
                <path d="M29,10 L29,32" id="Stroke-195" stroke="#0096E6" stroke-width="2" stroke-linecap="round" sketch:type="MSShapeGroup"></path>
                <path d="M22,47 L36,47 L36,52 L22,52 L22,47 Z" id="Fill-196" fill="#D0E8F9" sketch:type="MSShapeGroup"></path>
                <path d="M22,47 L36,47 L36,52 L22,52 L22,47 Z" id="Stroke-197" stroke="#0096E6" stroke-width="2" stroke-linecap="round" sketch:type="MSShapeGroup"></path>
                <path d="M24,52 L34,52 L34,57 L24,57 L24,52 Z" id="Fill-198" fill="#D0E8F9" sketch:type="MSShapeGroup"></path>
                <path d="M24,52 L34,52 L34,57 L24,57 L24,52 Z" id="Stroke-199" stroke="#0096E6" stroke-width="2" stroke-linecap="round" sketch:type="MSShapeGroup"></path>
                <path d="M32,35 C32,36.657 30.657,38 29,38 C27.343,38 26,36.657 26,35 C26,33.343 27.343,32 29,32 C30.657,32 32,33.343 32,35 L32,35 Z" id="Fill-200" fill="#D0E8F9" sketch:type="MSShapeGroup"></path>
                <path d="M32,35 C32,36.657 30.657,38 29,38 C27.343,38 26,36.657 26,35 C26,33.343 27.343,32 29,32 C30.657,32 32,33.343 32,35 L32,35 Z" id="Stroke-201" stroke="#0096E6" stroke-width="2" stroke-linecap="round" sketch:type="MSShapeGroup"></path>
                <path d="M29,11 L29,9 L29,11 Z" id="Path" stroke="#0096E6" stroke-width="2" stroke-linecap="round" sketch:type="MSShapeGroup"></path>
            </g>
        </g>
    </g>
</svg>