<?xml version="1.0" encoding="UTF-8" standalone="no"?>
<svg width="60px" height="60px" viewBox="0 0 60 60" version="1.1" xmlns="http://www.w3.org/2000/svg" xmlns:xlink="http://www.w3.org/1999/xlink" xmlns:sketch="http://www.bohemiancoding.com/sketch/ns">
    <!-- Generator: Sketch 3.2.2 (9983) - http://www.bohemiancoding.com/sketch -->
    <title>54 - Virus (Webby)</title>
    <desc>Created with Sketch.</desc>
    <defs></defs>
    <g id="Page-1" stroke="none" stroke-width="1" fill="none" fill-rule="evenodd" sketch:type="MSPage">
        <g id="Icons" sketch:type="MSArtboardGroup" transform="translate(-840.000000, -837.000000)">
            <g id="54---Virus-(Webby)" sketch:type="MSLayerGroup" transform="translate(841.000000, 838.000000)">
                <path d="M52.223,44.235 C51.184,43.95 50.184,43.938 49.254,44.124 C48.622,44.25 47.968,44.116 47.466,43.713 L46.055,42.581 C45.289,41.967 45.063,40.916 45.469,40.022 C45.847,39.193 46.16,38.329 46.401,37.436 C46.803,35.949 48.409,35.042 49.845,35.597 C51.381,36.191 53.156,36.155 54.753,35.332 C57.525,33.903 58.749,30.414 57.481,27.565 C56.118,24.499 52.515,23.152 49.48,24.556 C49.213,24.679 48.916,24.868 48.611,25.091 C47.251,26.085 45.442,25.728 44.577,24.281 C44.031,23.368 43.362,22.54 42.695,21.711 C41.813,20.613 41.659,19.093 42.308,17.832 L43.787,14.961 C44.337,13.894 45.357,13.091 46.552,12.973 C47.155,12.914 47.779,12.753 48.417,12.461 C50.305,11.597 51.701,9.819 51.953,7.758 C52.439,3.795 49.057,0.476 45.077,1.069 C42.55,1.445 40.488,3.48 40.081,6.002 C39.883,7.223 40.056,8.388 40.503,9.406 C40.963,10.452 41.002,11.632 40.479,12.648 L39.321,14.896 C38.516,16.459 36.708,17.29 35.031,16.766 C34.05,16.46 32.313,16.243 31.111,16.123 C30.323,16.044 29.672,15.477 29.49,14.707 L28.351,9.904 C28.21,9.309 28.387,8.697 28.786,8.235 C29.732,7.142 30.218,5.646 29.906,4.023 C29.534,2.09 27.996,0.51 26.068,0.111 C22.84,-0.557 20,1.89 20,5 C20,7.146 21.356,8.962 23.256,9.668 C23.867,9.895 24.351,10.372 24.502,11.007 L25.415,14.859 C25.634,15.784 25.111,16.708 24.216,17.03 C22.935,17.492 21.726,18.103 20.609,18.843 C19.807,19.374 18.714,19.362 17.967,18.756 C17.151,18.095 16.976,17.029 17.364,16.117 C17.993,14.643 18.193,12.943 17.794,11.167 C17.11,8.128 14.613,5.721 11.551,5.146 C5.921,4.089 1.08,8.936 2.149,14.568 C2.752,17.743 5.33,20.29 8.51,20.865 C9.918,21.12 11.275,21.004 12.501,20.601 C13.347,20.322 14.277,20.63 14.835,21.325 L15.235,21.823 C15.809,22.537 15.872,23.529 15.402,24.315 C14.226,26.288 13.438,28.518 13.144,30.902 C13.022,31.894 12.24,32.673 11.244,32.762 L9.345,32.931 C8.695,32.99 8.08,32.72 7.613,32.264 C6.892,31.559 5.925,31.084 4.782,31.006 C2.999,30.886 1.256,31.877 0.474,33.483 C-0.821,36.14 0.669,39.154 3.372,39.855 C5.321,40.36 7.288,39.499 8.298,37.876 C8.661,37.292 9.315,36.95 10,36.889 L11.631,36.743 C12.618,36.655 13.519,37.272 13.823,38.215 C14.493,40.292 15.551,42.192 16.913,43.833 C17.399,44.42 17.372,45.276 16.862,45.842 C16.436,46.314 15.777,46.451 15.172,46.259 C14.484,46.039 13.738,45.952 12.963,46.026 C10.464,46.262 8.38,48.259 8.05,50.746 C7.554,54.484 10.816,57.617 14.587,56.896 C16.551,56.52 18.182,55.029 18.758,53.113 C19.038,52.183 19.061,51.284 18.898,50.452 C18.805,49.984 18.948,49.502 19.268,49.147 L20.052,48.276 C20.524,47.753 21.295,47.604 21.915,47.94 C22.404,48.207 22.908,48.449 23.425,48.667 C24.529,49.131 25.129,50.284 25.023,51.477 C24.972,52.052 25.004,52.651 25.133,53.264 C25.661,55.768 27.816,57.704 30.362,57.967 C33.962,58.339 37,55.524 37,52 C37,51.616 36.963,51.24 36.893,50.876 C36.663,49.677 37.15,48.462 38.218,47.87 C39.203,47.324 40.127,46.684 40.979,45.961 C41.505,45.514 42.202,45.261 42.87,45.429 C44.235,45.774 44.82,47.112 44.396,48.265 C44.02,49.289 43.894,50.433 44.095,51.625 C44.558,54.371 46.831,56.564 49.591,56.938 C53.805,57.51 57.375,54.037 56.968,49.85 C56.712,47.208 54.783,44.938 52.223,44.235 L52.223,44.235 Z" id="Fill-817" fill="#FFFFFF" sketch:type="MSShapeGroup"></path>
                <path d="M52.223,44.235 C51.184,43.95 50.184,43.938 49.254,44.124 C48.622,44.25 47.968,44.116 47.466,43.713 L46.055,42.581 C45.289,41.967 45.063,40.916 45.469,40.022 C45.847,39.193 46.16,38.329 46.401,37.436 C46.803,35.949 48.409,35.042 49.845,35.597 C51.381,36.191 53.156,36.155 54.753,35.332 C57.525,33.903 58.749,30.414 57.481,27.565 C56.118,24.499 52.515,23.152 49.48,24.556 C49.213,24.679 48.916,24.868 48.611,25.091 C47.251,26.085 45.442,25.728 44.577,24.281 C44.031,23.368 43.362,22.54 42.695,21.711 C41.813,20.613 41.659,19.093 42.308,17.832 L43.787,14.961 C44.337,13.894 45.357,13.091 46.552,12.973 C47.155,12.914 47.779,12.753 48.417,12.461 C50.305,11.597 51.701,9.819 51.953,7.758 C52.439,3.795 49.057,0.476 45.077,1.069 C42.55,1.445 40.488,3.48 40.081,6.002 C39.883,7.223 40.056,8.388 40.503,9.406 C40.963,10.452 41.002,11.632 40.479,12.648 L39.321,14.896 C38.516,16.459 36.708,17.29 35.031,16.766 C34.05,16.46 32.313,16.243 31.111,16.123 C30.323,16.044 29.672,15.477 29.49,14.707 L28.351,9.904 C28.21,9.309 28.387,8.697 28.786,8.235 C29.732,7.142 30.218,5.646 29.906,4.023 C29.534,2.09 27.996,0.51 26.068,0.111 C22.84,-0.557 20,1.89 20,5 C20,7.146 21.356,8.962 23.256,9.668 C23.867,9.895 24.351,10.372 24.502,11.007 L25.415,14.859 C25.634,15.784 25.111,16.708 24.216,17.03 C22.935,17.492 21.726,18.103 20.609,18.843 C19.807,19.374 18.714,19.362 17.967,18.756 C17.151,18.095 16.976,17.029 17.364,16.117 C17.993,14.643 18.193,12.943 17.794,11.167 C17.11,8.128 14.613,5.721 11.551,5.146 C5.921,4.089 1.08,8.936 2.149,14.568 C2.752,17.743 5.33,20.29 8.51,20.865 C9.918,21.12 11.275,21.004 12.501,20.601 C13.347,20.322 14.277,20.63 14.835,21.325 L15.235,21.823 C15.809,22.537 15.872,23.529 15.402,24.315 C14.226,26.288 13.438,28.518 13.144,30.902 C13.022,31.894 12.24,32.673 11.244,32.762 L9.345,32.931 C8.695,32.99 8.08,32.72 7.613,32.264 C6.892,31.559 5.925,31.084 4.782,31.006 C2.999,30.886 1.256,31.877 0.474,33.483 C-0.821,36.14 0.669,39.154 3.372,39.855 C5.321,40.36 7.288,39.499 8.298,37.876 C8.661,37.292 9.315,36.95 10,36.889 L11.631,36.743 C12.618,36.655 13.519,37.272 13.823,38.215 C14.493,40.292 15.551,42.192 16.913,43.833 C17.399,44.42 17.372,45.276 16.862,45.842 C16.436,46.314 15.777,46.451 15.172,46.259 C14.484,46.039 13.738,45.952 12.963,46.026 C10.464,46.262 8.38,48.259 8.05,50.746 C7.554,54.484 10.816,57.617 14.587,56.896 C16.551,56.52 18.182,55.029 18.758,53.113 C19.038,52.183 19.061,51.284 18.898,50.452 C18.805,49.984 18.948,49.502 19.268,49.147 L20.052,48.276 C20.524,47.753 21.295,47.604 21.915,47.94 C22.404,48.207 22.908,48.449 23.425,48.667 C24.529,49.131 25.129,50.284 25.023,51.477 C24.972,52.052 25.004,52.651 25.133,53.264 C25.661,55.768 27.816,57.704 30.362,57.967 C33.962,58.339 37,55.524 37,52 C37,51.616 36.963,51.24 36.893,50.876 C36.663,49.677 37.15,48.462 38.218,47.87 C39.203,47.324 40.127,46.684 40.979,45.961 C41.505,45.514 42.202,45.261 42.87,45.429 C44.235,45.774 44.82,47.112 44.396,48.265 C44.02,49.289 43.894,50.433 44.095,51.625 C44.558,54.371 46.831,56.564 49.591,56.938 C53.805,57.51 57.375,54.037 56.968,49.85 C56.712,47.208 54.783,44.938 52.223,44.235 L52.223,44.235 Z" id="Stroke-818" stroke="#0096E6" stroke-width="2" sketch:type="MSShapeGroup"></path>
                <path d="M34,25 C34,25.552 33.552,26 33,26 C32.448,26 32,25.552 32,25 C32,24.448 32.448,24 33,24 C33.552,24 34,24.448 34,25" id="Fill-819" fill="#0096E6" sketch:type="MSShapeGroup"></path>
                <path d="M23,37 C23,37.552 22.552,38 22,38 C21.448,38 21,37.552 21,37 C21,36.448 21.448,36 22,36 C22.552,36 23,36.448 23,37" id="Fill-820" fill="#0096E6" sketch:type="MSShapeGroup"></path>
                <path d="M43,40 C43,40.552 42.552,41 42,41 C41.448,41 41,40.552 41,40 C41,39.448 41.448,39 42,39 C42.552,39 43,39.448 43,40" id="Fill-821" fill="#0096E6" sketch:type="MSShapeGroup"></path>
                <path d="M50,30 C50,30.552 49.552,31 49,31 C48.448,31 48,30.552 48,30 C48,29.448 48.448,29 49,29 C49.552,29 50,29.448 50,30" id="Fill-822" fill="#0096E6" sketch:type="MSShapeGroup"></path>
                <path d="M39,21 C39,21.552 38.552,22 38,22 C37.448,22 37,21.552 37,21 C37,20.448 37.448,20 38,20 C38.552,20 39,20.448 39,21" id="Fill-823" fill="#0096E6" sketch:type="MSShapeGroup"></path>
                <path d="M36,42 C36,44.761 33.761,47 31,47 C28.239,47 26,44.761 26,42 C26,39.239 28.239,37 31,37 C33.761,37 36,39.239 36,42 L36,42 Z" id="Fill-824" fill="#D0E8F9" sketch:type="MSShapeGroup"></path>
                <path d="M36,42 C36,44.761 33.761,47 31,47 C28.239,47 26,44.761 26,42 C26,39.239 28.239,37 31,37 C33.761,37 36,39.239 36,42 L36,42 Z" id="Stroke-825" stroke="#0096E6" stroke-width="2" sketch:type="MSShapeGroup"></path>
                <path d="M26,28 C26,29.657 24.657,31 23,31 C21.343,31 20,29.657 20,28 C20,26.343 21.343,25 23,25 C24.657,25 26,26.343 26,28 L26,28 Z" id="Fill-826" fill="#D0E8F9" sketch:type="MSShapeGroup"></path>
                <path d="M26,28 C26,29.657 24.657,31 23,31 C21.343,31 20,29.657 20,28 C20,26.343 21.343,25 23,25 C24.657,25 26,26.343 26,28 L26,28 Z" id="Stroke-827" stroke="#0096E6" stroke-width="2" sketch:type="MSShapeGroup"></path>
                <path d="M43,31 C43,32.657 41.657,34 40,34 C38.343,34 37,32.657 37,31 C37,29.343 38.343,28 40,28 C41.657,28 43,29.343 43,31 L43,31 Z" id="Fill-828" fill="#D0E8F9" sketch:type="MSShapeGroup"></path>
                <path d="M43,31 C43,32.657 41.657,34 40,34 C38.343,34 37,32.657 37,31 C37,29.343 38.343,28 40,28 C41.657,28 43,29.343 43,31 L43,31 Z" id="Stroke-829" stroke="#0096E6" stroke-width="2" sketch:type="MSShapeGroup"></path>
            </g>
        </g>
    </g>
</svg>